<mxfile host="Electron" modified="2024-05-23T10:03:35.565Z" agent="Mozilla/5.0 (X11; Linux x86_64) AppleWebKit/537.36 (KHTML, like Gecko) draw.io/24.2.5 Chrome/120.0.6099.109 Electron/28.1.0 Safari/537.36" etag="eQxDyA7PbVW0uNu7G0h-" version="24.2.5" type="device">
  <diagram name="Page-1" id="a_-lE9-1IEwRaT9NeWbI">
    <mxGraphModel dx="1140" dy="1745" grid="1" gridSize="10" guides="1" tooltips="1" connect="1" arrows="1" fold="1" page="1" pageScale="1" pageWidth="1920" pageHeight="1200" math="1" shadow="0">
      <root>
        <mxCell id="0" />
        <mxCell id="1" parent="0" />
        <mxCell id="p715lNvgheU7Gry9CAb6-140" style="rounded=0;orthogonalLoop=1;jettySize=auto;html=1;exitX=1;exitY=0.5;exitDx=0;exitDy=0;entryX=0;entryY=0.5;entryDx=0;entryDy=0;" parent="1" source="p715lNvgheU7Gry9CAb6-142" target="p715lNvgheU7Gry9CAb6-281" edge="1">
          <mxGeometry relative="1" as="geometry" />
        </mxCell>
        <mxCell id="p715lNvgheU7Gry9CAb6-141" value="&lt;font style=&quot;font-size: 12px;&quot;&gt;λ&lt;/font&gt;" style="edgeLabel;html=1;align=center;verticalAlign=middle;resizable=0;points=[];labelBackgroundColor=none;fontFamily=Open Sans;fontSize=12;" parent="p715lNvgheU7Gry9CAb6-140" vertex="1" connectable="0">
          <mxGeometry x="-0.0474" y="2" relative="1" as="geometry">
            <mxPoint y="-8" as="offset" />
          </mxGeometry>
        </mxCell>
        <mxCell id="p715lNvgheU7Gry9CAb6-142" value="$$T_{1}^{120}$$" style="ellipse;whiteSpace=wrap;html=1;aspect=fixed;fillColor=none;fontSize=16;fontFamily=Open Sans;strokeWidth=2;" parent="1" vertex="1">
          <mxGeometry x="200" y="360" width="80" height="80" as="geometry" />
        </mxCell>
        <mxCell id="p715lNvgheU7Gry9CAb6-143" style="rounded=0;orthogonalLoop=1;jettySize=auto;html=1;exitX=1;exitY=0;exitDx=0;exitDy=0;entryX=0;entryY=0.5;entryDx=0;entryDy=0;strokeColor=default;align=center;verticalAlign=middle;fontFamily=Open Sans;fontSize=16;fontColor=default;labelBackgroundColor=default;endArrow=classic;" parent="1" source="p715lNvgheU7Gry9CAb6-317" target="p715lNvgheU7Gry9CAb6-302" edge="1">
          <mxGeometry relative="1" as="geometry" />
        </mxCell>
        <mxCell id="p715lNvgheU7Gry9CAb6-144" value="$$U$$" style="edgeLabel;html=1;align=center;verticalAlign=middle;resizable=0;points=[];labelBackgroundColor=none;fontFamily=Open Sans;fontSize=12;" parent="p715lNvgheU7Gry9CAb6-143" vertex="1" connectable="0">
          <mxGeometry x="-0.1328" relative="1" as="geometry">
            <mxPoint x="-8" y="-9" as="offset" />
          </mxGeometry>
        </mxCell>
        <mxCell id="p715lNvgheU7Gry9CAb6-306" style="edgeStyle=none;rounded=0;orthogonalLoop=1;jettySize=auto;html=1;exitX=1;exitY=0.5;exitDx=0;exitDy=0;entryX=0;entryY=0.5;entryDx=0;entryDy=0;strokeColor=default;align=center;verticalAlign=middle;fontFamily=Open Sans;fontSize=16;fontColor=default;labelBackgroundColor=default;endArrow=classic;" parent="1" source="p715lNvgheU7Gry9CAb6-148" target="p715lNvgheU7Gry9CAb6-303" edge="1">
          <mxGeometry relative="1" as="geometry" />
        </mxCell>
        <mxCell id="p715lNvgheU7Gry9CAb6-308" value="&lt;span style=&quot;font-size: 12px;&quot;&gt;$$RNB_{1}$$&lt;/span&gt;" style="edgeLabel;html=1;align=center;verticalAlign=middle;resizable=0;points=[];fontFamily=Open Sans;fontSize=12;fontColor=default;labelBackgroundColor=none;" parent="p715lNvgheU7Gry9CAb6-306" vertex="1" connectable="0">
          <mxGeometry x="-0.0927" y="3" relative="1" as="geometry">
            <mxPoint x="4" y="-17" as="offset" />
          </mxGeometry>
        </mxCell>
        <mxCell id="p715lNvgheU7Gry9CAb6-411" style="edgeStyle=orthogonalEdgeStyle;rounded=0;orthogonalLoop=1;jettySize=auto;html=1;exitX=0.5;exitY=1;exitDx=0;exitDy=0;entryX=0.5;entryY=1;entryDx=0;entryDy=0;strokeColor=default;align=center;verticalAlign=middle;fontFamily=Open Sans;fontSize=16;fontColor=default;labelBackgroundColor=default;endArrow=classic;curved=1;" parent="1" source="p715lNvgheU7Gry9CAb6-148" target="p715lNvgheU7Gry9CAb6-281" edge="1">
          <mxGeometry relative="1" as="geometry">
            <Array as="points">
              <mxPoint x="720" y="480" />
              <mxPoint x="400" y="480" />
            </Array>
          </mxGeometry>
        </mxCell>
        <mxCell id="p715lNvgheU7Gry9CAb6-414" value="$$L$$" style="edgeLabel;html=1;align=center;verticalAlign=middle;resizable=0;points=[];fontFamily=Open Sans;fontSize=12;fontColor=default;labelBackgroundColor=none;" parent="p715lNvgheU7Gry9CAb6-411" vertex="1" connectable="0">
          <mxGeometry x="0.0232" y="-2" relative="1" as="geometry">
            <mxPoint x="5" y="-8" as="offset" />
          </mxGeometry>
        </mxCell>
        <mxCell id="zTE5bsZSXoYTr9CKlFXF-23" style="edgeStyle=orthogonalEdgeStyle;rounded=0;orthogonalLoop=1;jettySize=auto;html=1;exitX=0;exitY=1;exitDx=0;exitDy=0;entryX=0.5;entryY=1;entryDx=0;entryDy=0;strokeColor=#9673A6;align=center;verticalAlign=middle;fontFamily=Helvetica;fontSize=11;fontColor=default;labelBackgroundColor=default;endArrow=classic;curved=1;" parent="1" source="p715lNvgheU7Gry9CAb6-148" target="p715lNvgheU7Gry9CAb6-142" edge="1">
          <mxGeometry relative="1" as="geometry">
            <Array as="points">
              <mxPoint x="692" y="510" />
              <mxPoint x="240" y="510" />
            </Array>
          </mxGeometry>
        </mxCell>
        <mxCell id="p715lNvgheU7Gry9CAb6-148" value="$$P_{2}^{3}$$" style="ellipse;whiteSpace=wrap;html=1;aspect=fixed;fillColor=none;fontSize=16;fontFamily=Open Sans;strokeWidth=2;" parent="1" vertex="1">
          <mxGeometry x="680" y="360" width="80" height="80" as="geometry" />
        </mxCell>
        <mxCell id="p715lNvgheU7Gry9CAb6-165" style="edgeStyle=none;rounded=0;orthogonalLoop=1;jettySize=auto;html=1;exitX=1;exitY=0;exitDx=0;exitDy=0;entryX=0;entryY=0.5;entryDx=0;entryDy=0;strokeColor=default;align=center;verticalAlign=middle;fontFamily=Open Sans;fontSize=16;fontColor=default;labelBackgroundColor=default;endArrow=classic;" parent="1" source="p715lNvgheU7Gry9CAb6-302" target="p715lNvgheU7Gry9CAb6-184" edge="1">
          <mxGeometry relative="1" as="geometry" />
        </mxCell>
        <mxCell id="p715lNvgheU7Gry9CAb6-166" value="λ" style="edgeLabel;html=1;align=center;verticalAlign=middle;resizable=0;points=[];fontSize=12;fontFamily=Open Sans;labelBackgroundColor=none;" parent="p715lNvgheU7Gry9CAb6-165" vertex="1" connectable="0">
          <mxGeometry x="-0.0407" y="1" relative="1" as="geometry">
            <mxPoint y="-9" as="offset" />
          </mxGeometry>
        </mxCell>
        <mxCell id="p715lNvgheU7Gry9CAb6-167" style="rounded=0;orthogonalLoop=1;jettySize=auto;html=1;exitX=0;exitY=1;exitDx=0;exitDy=0;entryX=1;entryY=0.5;entryDx=0;entryDy=0;" parent="1" source="p715lNvgheU7Gry9CAb6-302" target="p715lNvgheU7Gry9CAb6-317" edge="1">
          <mxGeometry relative="1" as="geometry" />
        </mxCell>
        <mxCell id="p715lNvgheU7Gry9CAb6-168" value="λ" style="edgeLabel;html=1;align=center;verticalAlign=middle;resizable=0;points=[];fontFamily=Open Sans;fontSize=12;fontColor=default;labelBackgroundColor=none;" parent="p715lNvgheU7Gry9CAb6-167" vertex="1" connectable="0">
          <mxGeometry x="-0.029" y="-2" relative="1" as="geometry">
            <mxPoint x="-1" y="-6" as="offset" />
          </mxGeometry>
        </mxCell>
        <mxCell id="p715lNvgheU7Gry9CAb6-177" style="rounded=0;orthogonalLoop=1;jettySize=auto;html=1;exitX=1;exitY=0.5;exitDx=0;exitDy=0;entryX=0;entryY=0.5;entryDx=0;entryDy=0;strokeColor=default;align=center;verticalAlign=middle;fontFamily=Open Sans;fontSize=16;fontColor=default;labelBackgroundColor=default;endArrow=classic;" parent="1" source="p715lNvgheU7Gry9CAb6-184" target="p715lNvgheU7Gry9CAb6-190" edge="1">
          <mxGeometry relative="1" as="geometry" />
        </mxCell>
        <mxCell id="p715lNvgheU7Gry9CAb6-178" value="$$RNB_{1}$$" style="edgeLabel;html=1;align=center;verticalAlign=middle;resizable=0;points=[];fontFamily=Open Sans;fontSize=12;labelBackgroundColor=none;" parent="p715lNvgheU7Gry9CAb6-177" vertex="1" connectable="0">
          <mxGeometry x="-0.03" y="2" relative="1" as="geometry">
            <mxPoint y="-18" as="offset" />
          </mxGeometry>
        </mxCell>
        <mxCell id="p715lNvgheU7Gry9CAb6-181" style="edgeStyle=none;rounded=0;orthogonalLoop=1;jettySize=auto;html=1;exitX=0;exitY=1;exitDx=0;exitDy=0;entryX=1;entryY=0.5;entryDx=0;entryDy=0;strokeColor=default;align=center;verticalAlign=middle;fontFamily=Open Sans;fontSize=16;fontColor=default;labelBackgroundColor=default;endArrow=classic;" parent="1" source="p715lNvgheU7Gry9CAb6-184" target="p715lNvgheU7Gry9CAb6-302" edge="1">
          <mxGeometry relative="1" as="geometry" />
        </mxCell>
        <mxCell id="p715lNvgheU7Gry9CAb6-182" value="$$D$$" style="edgeLabel;html=1;align=center;verticalAlign=middle;resizable=0;points=[];fontFamily=Open Sans;fontSize=12;fontColor=default;labelBackgroundColor=none;" parent="p715lNvgheU7Gry9CAb6-181" vertex="1" connectable="0">
          <mxGeometry x="-0.0397" y="-1" relative="1" as="geometry">
            <mxPoint x="-17" y="-2" as="offset" />
          </mxGeometry>
        </mxCell>
        <mxCell id="zTE5bsZSXoYTr9CKlFXF-28" style="edgeStyle=orthogonalEdgeStyle;curved=1;rounded=0;orthogonalLoop=1;jettySize=auto;html=1;exitX=0;exitY=0;exitDx=0;exitDy=0;entryX=0.5;entryY=0;entryDx=0;entryDy=0;strokeColor=#9673A6;align=center;verticalAlign=middle;fontFamily=Helvetica;fontSize=11;fontColor=default;labelBackgroundColor=default;endArrow=classic;" parent="1" source="p715lNvgheU7Gry9CAb6-184" target="p715lNvgheU7Gry9CAb6-142" edge="1">
          <mxGeometry relative="1" as="geometry" />
        </mxCell>
        <mxCell id="XBu-y18PQJPCOyqMYqS6-2" value="$$T_{1}$$" style="edgeLabel;html=1;align=center;verticalAlign=middle;resizable=0;points=[];labelBackgroundColor=none;" vertex="1" connectable="0" parent="zTE5bsZSXoYTr9CKlFXF-28">
          <mxGeometry x="0.9601" y="7" relative="1" as="geometry">
            <mxPoint x="-27" y="5" as="offset" />
          </mxGeometry>
        </mxCell>
        <mxCell id="p715lNvgheU7Gry9CAb6-184" value="$$P_{4}^{3}$$" style="ellipse;whiteSpace=wrap;html=1;aspect=fixed;fillColor=none;fontSize=16;fontFamily=Open Sans;strokeWidth=2;" parent="1" vertex="1">
          <mxGeometry x="1320" y="200" width="80" height="80" as="geometry" />
        </mxCell>
        <mxCell id="p715lNvgheU7Gry9CAb6-185" style="edgeStyle=none;rounded=0;orthogonalLoop=1;jettySize=auto;html=1;exitX=1;exitY=0.5;exitDx=0;exitDy=0;entryX=0;entryY=0.5;entryDx=0;entryDy=0;strokeColor=default;align=center;verticalAlign=middle;fontFamily=Open Sans;fontSize=16;fontColor=default;labelBackgroundColor=default;endArrow=classic;" parent="1" source="p715lNvgheU7Gry9CAb6-190" target="p715lNvgheU7Gry9CAb6-236" edge="1">
          <mxGeometry relative="1" as="geometry" />
        </mxCell>
        <mxCell id="p715lNvgheU7Gry9CAb6-186" value="λ" style="edgeLabel;html=1;align=center;verticalAlign=middle;resizable=0;points=[];fontSize=12;fontFamily=Open Sans;labelBackgroundColor=none;" parent="p715lNvgheU7Gry9CAb6-185" vertex="1" connectable="0">
          <mxGeometry x="-0.1025" relative="1" as="geometry">
            <mxPoint x="-1" y="-8" as="offset" />
          </mxGeometry>
        </mxCell>
        <mxCell id="zTE5bsZSXoYTr9CKlFXF-30" style="edgeStyle=orthogonalEdgeStyle;curved=1;rounded=0;orthogonalLoop=1;jettySize=auto;html=1;exitX=0.5;exitY=0;exitDx=0;exitDy=0;entryX=0.5;entryY=0;entryDx=0;entryDy=0;strokeColor=#9673A6;align=center;verticalAlign=middle;fontFamily=Helvetica;fontSize=11;fontColor=default;labelBackgroundColor=default;endArrow=classic;" parent="1" source="p715lNvgheU7Gry9CAb6-190" target="p715lNvgheU7Gry9CAb6-142" edge="1">
          <mxGeometry relative="1" as="geometry" />
        </mxCell>
        <mxCell id="p715lNvgheU7Gry9CAb6-190" value="$$GW_{1}^{3}$$" style="ellipse;whiteSpace=wrap;html=1;aspect=fixed;fillColor=none;fontSize=16;fontFamily=Open Sans;strokeWidth=2;" parent="1" vertex="1">
          <mxGeometry x="1480" y="200" width="80" height="80" as="geometry" />
        </mxCell>
        <mxCell id="p715lNvgheU7Gry9CAb6-322" style="edgeStyle=none;rounded=0;orthogonalLoop=1;jettySize=auto;html=1;exitX=1;exitY=0.5;exitDx=0;exitDy=0;entryX=0;entryY=0.5;entryDx=0;entryDy=0;strokeColor=default;align=center;verticalAlign=middle;fontFamily=Open Sans;fontSize=16;fontColor=default;labelBackgroundColor=default;endArrow=classic;" parent="1" source="p715lNvgheU7Gry9CAb6-236" target="p715lNvgheU7Gry9CAb6-310" edge="1">
          <mxGeometry relative="1" as="geometry" />
        </mxCell>
        <mxCell id="p715lNvgheU7Gry9CAb6-323" value="$$RB_2B_{4}$$" style="edgeLabel;html=1;align=center;verticalAlign=middle;resizable=0;points=[];fontFamily=Open Sans;fontSize=12;fontColor=default;labelBackgroundColor=none;" parent="p715lNvgheU7Gry9CAb6-322" vertex="1" connectable="0">
          <mxGeometry x="-0.1" y="1" relative="1" as="geometry">
            <mxPoint x="4" y="-19" as="offset" />
          </mxGeometry>
        </mxCell>
        <mxCell id="p715lNvgheU7Gry9CAb6-418" style="edgeStyle=orthogonalEdgeStyle;rounded=0;orthogonalLoop=1;jettySize=auto;html=1;exitX=0;exitY=1;exitDx=0;exitDy=0;entryX=1;entryY=1;entryDx=0;entryDy=0;strokeColor=default;align=center;verticalAlign=middle;fontFamily=Open Sans;fontSize=16;fontColor=default;labelBackgroundColor=default;endArrow=classic;curved=1;" parent="1" source="p715lNvgheU7Gry9CAb6-236" target="p715lNvgheU7Gry9CAb6-184" edge="1">
          <mxGeometry relative="1" as="geometry">
            <Array as="points">
              <mxPoint x="1652" y="310" />
              <mxPoint x="1388" y="310" />
            </Array>
          </mxGeometry>
        </mxCell>
        <mxCell id="p715lNvgheU7Gry9CAb6-419" value="$$L$$" style="edgeLabel;html=1;align=center;verticalAlign=middle;resizable=0;points=[];fontFamily=Open Sans;fontSize=12;fontColor=default;labelBackgroundColor=none;" parent="p715lNvgheU7Gry9CAb6-418" vertex="1" connectable="0">
          <mxGeometry x="0.0006" y="-4" relative="1" as="geometry">
            <mxPoint y="-6" as="offset" />
          </mxGeometry>
        </mxCell>
        <mxCell id="p715lNvgheU7Gry9CAb6-508" style="edgeStyle=orthogonalEdgeStyle;rounded=0;orthogonalLoop=1;jettySize=auto;html=1;exitX=0.5;exitY=1;exitDx=0;exitDy=0;entryX=0;entryY=0;entryDx=0;entryDy=0;strokeColor=default;align=center;verticalAlign=middle;fontFamily=Open Sans;fontSize=16;fontColor=default;labelBackgroundColor=default;endArrow=classic;curved=1;" parent="1" source="p715lNvgheU7Gry9CAb6-236" target="p715lNvgheU7Gry9CAb6-471" edge="1">
          <mxGeometry relative="1" as="geometry">
            <Array as="points">
              <mxPoint x="1680" y="300" />
              <mxPoint x="1650" y="300" />
              <mxPoint x="1650" y="320" />
              <mxPoint x="1652" y="320" />
            </Array>
          </mxGeometry>
        </mxCell>
        <mxCell id="p715lNvgheU7Gry9CAb6-511" value="&lt;span style=&quot;font-size: 12px;&quot;&gt;$$RNB_{2}NB_{4}$$&lt;/span&gt;" style="edgeLabel;html=1;align=center;verticalAlign=middle;resizable=0;points=[];fontFamily=Open Sans;fontSize=12;fontColor=default;labelBackgroundColor=none;" parent="p715lNvgheU7Gry9CAb6-508" vertex="1" connectable="0">
          <mxGeometry x="0.3126" y="-3" relative="1" as="geometry">
            <mxPoint x="-50" as="offset" />
          </mxGeometry>
        </mxCell>
        <mxCell id="zTE5bsZSXoYTr9CKlFXF-31" style="edgeStyle=orthogonalEdgeStyle;curved=1;rounded=0;orthogonalLoop=1;jettySize=auto;html=1;exitX=0.5;exitY=0;exitDx=0;exitDy=0;entryX=0.5;entryY=0;entryDx=0;entryDy=0;strokeColor=#9673A6;align=center;verticalAlign=middle;fontFamily=Helvetica;fontSize=11;fontColor=default;labelBackgroundColor=default;endArrow=classic;" parent="1" source="p715lNvgheU7Gry9CAb6-236" target="p715lNvgheU7Gry9CAb6-142" edge="1">
          <mxGeometry relative="1" as="geometry">
            <Array as="points">
              <mxPoint x="1680" y="150" />
              <mxPoint x="240" y="150" />
            </Array>
          </mxGeometry>
        </mxCell>
        <mxCell id="p715lNvgheU7Gry9CAb6-236" value="$$P_{5}^{3}$$" style="ellipse;whiteSpace=wrap;html=1;aspect=fixed;fillColor=none;fontSize=16;fontFamily=Open Sans;strokeWidth=2;" parent="1" vertex="1">
          <mxGeometry x="1640" y="200" width="80" height="80" as="geometry" />
        </mxCell>
        <mxCell id="p715lNvgheU7Gry9CAb6-274" style="edgeStyle=none;rounded=0;orthogonalLoop=1;jettySize=auto;html=1;exitX=1;exitY=0.5;exitDx=0;exitDy=0;entryX=0;entryY=0.5;entryDx=0;entryDy=0;strokeColor=default;align=center;verticalAlign=middle;fontFamily=Open Sans;fontSize=16;fontColor=default;labelBackgroundColor=default;endArrow=classic;" parent="1" source="p715lNvgheU7Gry9CAb6-276" target="p715lNvgheU7Gry9CAb6-142" edge="1">
          <mxGeometry relative="1" as="geometry" />
        </mxCell>
        <mxCell id="p715lNvgheU7Gry9CAb6-275" value="λ" style="edgeLabel;html=1;align=center;verticalAlign=middle;resizable=0;points=[];fontFamily=Open Sans;fontSize=12;fontColor=default;labelBackgroundColor=none;" parent="p715lNvgheU7Gry9CAb6-274" vertex="1" connectable="0">
          <mxGeometry x="-0.0667" relative="1" as="geometry">
            <mxPoint y="-10" as="offset" />
          </mxGeometry>
        </mxCell>
        <mxCell id="p715lNvgheU7Gry9CAb6-276" value="$$-$$" style="ellipse;whiteSpace=wrap;html=1;aspect=fixed;fillColor=none;fontSize=16;fontFamily=Open Sans;strokeWidth=2;" parent="1" vertex="1">
          <mxGeometry x="40" y="360" width="80" height="80" as="geometry" />
        </mxCell>
        <mxCell id="p715lNvgheU7Gry9CAb6-284" style="edgeStyle=orthogonalEdgeStyle;rounded=0;orthogonalLoop=1;jettySize=auto;html=1;exitX=0;exitY=1;exitDx=0;exitDy=0;entryX=1;entryY=1;entryDx=0;entryDy=0;" parent="1" source="p715lNvgheU7Gry9CAb6-278" target="p715lNvgheU7Gry9CAb6-281" edge="1">
          <mxGeometry relative="1" as="geometry" />
        </mxCell>
        <mxCell id="p715lNvgheU7Gry9CAb6-285" value="&lt;span style=&quot;font-size: 12px;&quot;&gt;λ&lt;/span&gt;" style="edgeLabel;html=1;align=center;verticalAlign=middle;resizable=0;points=[];labelBackgroundColor=none;fontFamily=Open Sans;fontSize=12;" parent="p715lNvgheU7Gry9CAb6-284" vertex="1" connectable="0">
          <mxGeometry x="0.0108" y="-5" relative="1" as="geometry">
            <mxPoint y="-3" as="offset" />
          </mxGeometry>
        </mxCell>
        <mxCell id="zTE5bsZSXoYTr9CKlFXF-22" style="edgeStyle=orthogonalEdgeStyle;rounded=0;orthogonalLoop=1;jettySize=auto;html=1;exitX=0.5;exitY=1;exitDx=0;exitDy=0;entryX=0.5;entryY=1;entryDx=0;entryDy=0;strokeColor=#9673A6;align=center;verticalAlign=middle;fontFamily=Helvetica;fontSize=11;fontColor=default;labelBackgroundColor=default;endArrow=classic;curved=1;" parent="1" source="p715lNvgheU7Gry9CAb6-278" target="p715lNvgheU7Gry9CAb6-142" edge="1">
          <mxGeometry relative="1" as="geometry">
            <Array as="points">
              <mxPoint x="560" y="490" />
              <mxPoint x="240" y="490" />
            </Array>
          </mxGeometry>
        </mxCell>
        <mxCell id="p715lNvgheU7Gry9CAb6-278" value="$$NB_{1}^{3}$$" style="ellipse;whiteSpace=wrap;html=1;aspect=fixed;fillColor=none;fontSize=16;fontFamily=Open Sans;strokeWidth=2;" parent="1" vertex="1">
          <mxGeometry x="520" y="360" width="80" height="80" as="geometry" />
        </mxCell>
        <mxCell id="p715lNvgheU7Gry9CAb6-282" style="edgeStyle=orthogonalEdgeStyle;rounded=0;orthogonalLoop=1;jettySize=auto;html=1;exitX=1;exitY=0.5;exitDx=0;exitDy=0;entryX=0;entryY=0.5;entryDx=0;entryDy=0;" parent="1" source="p715lNvgheU7Gry9CAb6-281" target="p715lNvgheU7Gry9CAb6-278" edge="1">
          <mxGeometry relative="1" as="geometry" />
        </mxCell>
        <mxCell id="p715lNvgheU7Gry9CAb6-283" value="$$P$$" style="edgeLabel;html=1;align=center;verticalAlign=middle;resizable=0;points=[];labelBackgroundColor=none;fontFamily=Open Sans;" parent="p715lNvgheU7Gry9CAb6-282" vertex="1" connectable="0">
          <mxGeometry x="-0.05" y="1" relative="1" as="geometry">
            <mxPoint x="2" y="-9" as="offset" />
          </mxGeometry>
        </mxCell>
        <mxCell id="p715lNvgheU7Gry9CAb6-290" style="edgeStyle=orthogonalEdgeStyle;rounded=0;orthogonalLoop=1;jettySize=auto;html=1;exitX=0.5;exitY=0;exitDx=0;exitDy=0;entryX=0.5;entryY=0;entryDx=0;entryDy=0;curved=1;" parent="1" source="p715lNvgheU7Gry9CAb6-281" target="p715lNvgheU7Gry9CAb6-148" edge="1">
          <mxGeometry relative="1" as="geometry">
            <Array as="points">
              <mxPoint x="400" y="320" />
              <mxPoint x="720" y="320" />
            </Array>
          </mxGeometry>
        </mxCell>
        <mxCell id="p715lNvgheU7Gry9CAb6-291" value="$$R$$" style="edgeLabel;html=1;align=center;verticalAlign=middle;resizable=0;points=[];labelBackgroundColor=none;fontFamily=Open Sans;" parent="p715lNvgheU7Gry9CAb6-290" vertex="1" connectable="0">
          <mxGeometry x="-0.0012" y="3" relative="1" as="geometry">
            <mxPoint y="-7" as="offset" />
          </mxGeometry>
        </mxCell>
        <mxCell id="zTE5bsZSXoYTr9CKlFXF-21" style="edgeStyle=orthogonalEdgeStyle;rounded=0;orthogonalLoop=1;jettySize=auto;html=1;exitX=0;exitY=1;exitDx=0;exitDy=0;entryX=0.5;entryY=1;entryDx=0;entryDy=0;strokeColor=#9673A6;align=center;verticalAlign=middle;fontFamily=Helvetica;fontSize=11;fontColor=default;labelBackgroundColor=default;endArrow=classic;curved=1;" parent="1" source="p715lNvgheU7Gry9CAb6-281" target="p715lNvgheU7Gry9CAb6-142" edge="1">
          <mxGeometry relative="1" as="geometry">
            <Array as="points">
              <mxPoint x="372" y="470" />
              <mxPoint x="240" y="470" />
            </Array>
          </mxGeometry>
        </mxCell>
        <mxCell id="XBu-y18PQJPCOyqMYqS6-1" value="$$T_{1}$$" style="edgeLabel;html=1;align=center;verticalAlign=middle;resizable=0;points=[];labelBackgroundColor=none;" vertex="1" connectable="0" parent="zTE5bsZSXoYTr9CKlFXF-21">
          <mxGeometry x="0.5929" y="-9" relative="1" as="geometry">
            <mxPoint x="-31" as="offset" />
          </mxGeometry>
        </mxCell>
        <mxCell id="p715lNvgheU7Gry9CAb6-281" value="$$P_{1}^{3}$$" style="ellipse;whiteSpace=wrap;html=1;aspect=fixed;fillColor=none;fontSize=16;fontFamily=Open Sans;strokeWidth=2;" parent="1" vertex="1">
          <mxGeometry x="360" y="360" width="80" height="80" as="geometry" />
        </mxCell>
        <mxCell id="zTE5bsZSXoYTr9CKlFXF-27" style="edgeStyle=orthogonalEdgeStyle;curved=1;rounded=0;orthogonalLoop=1;jettySize=auto;html=1;exitX=0.5;exitY=1;exitDx=0;exitDy=0;entryX=0.5;entryY=1;entryDx=0;entryDy=0;strokeColor=#9673A6;align=center;verticalAlign=middle;fontFamily=Helvetica;fontSize=11;fontColor=default;labelBackgroundColor=default;endArrow=classic;" parent="1" source="p715lNvgheU7Gry9CAb6-302" target="p715lNvgheU7Gry9CAb6-142" edge="1">
          <mxGeometry relative="1" as="geometry">
            <Array as="points">
              <mxPoint x="1200" y="610" />
              <mxPoint x="240" y="610" />
            </Array>
          </mxGeometry>
        </mxCell>
        <mxCell id="p715lNvgheU7Gry9CAb6-302" value="$$S_{1}^{6}$$" style="ellipse;whiteSpace=wrap;html=1;aspect=fixed;fillColor=none;fontSize=16;fontFamily=Open Sans;strokeWidth=2;" parent="1" vertex="1">
          <mxGeometry x="1160" y="280" width="80" height="80" as="geometry" />
        </mxCell>
        <mxCell id="p715lNvgheU7Gry9CAb6-307" style="edgeStyle=orthogonalEdgeStyle;rounded=0;orthogonalLoop=1;jettySize=auto;html=1;exitX=0;exitY=1;exitDx=0;exitDy=0;entryX=1;entryY=1;entryDx=0;entryDy=0;strokeColor=default;align=center;verticalAlign=middle;fontFamily=Open Sans;fontSize=16;fontColor=default;labelBackgroundColor=default;endArrow=classic;curved=1;" parent="1" source="p715lNvgheU7Gry9CAb6-317" target="p715lNvgheU7Gry9CAb6-148" edge="1">
          <mxGeometry relative="1" as="geometry">
            <Array as="points">
              <mxPoint x="1012" y="470" />
              <mxPoint x="748" y="470" />
            </Array>
          </mxGeometry>
        </mxCell>
        <mxCell id="p715lNvgheU7Gry9CAb6-309" value="&lt;span style=&quot;font-size: 12px;&quot;&gt;$$L$$&lt;/span&gt;" style="edgeLabel;html=1;align=center;verticalAlign=middle;resizable=0;points=[];fontFamily=Open Sans;fontSize=12;fontColor=default;labelBackgroundColor=none;" parent="p715lNvgheU7Gry9CAb6-307" vertex="1" connectable="0">
          <mxGeometry x="0.0842" y="-3" relative="1" as="geometry">
            <mxPoint x="14" y="-5" as="offset" />
          </mxGeometry>
        </mxCell>
        <mxCell id="p715lNvgheU7Gry9CAb6-318" style="edgeStyle=none;rounded=0;orthogonalLoop=1;jettySize=auto;html=1;exitX=1;exitY=0.5;exitDx=0;exitDy=0;entryX=0;entryY=0.5;entryDx=0;entryDy=0;strokeColor=default;align=center;verticalAlign=middle;fontFamily=Open Sans;fontSize=16;fontColor=default;labelBackgroundColor=default;endArrow=classic;" parent="1" source="p715lNvgheU7Gry9CAb6-303" target="p715lNvgheU7Gry9CAb6-317" edge="1">
          <mxGeometry relative="1" as="geometry" />
        </mxCell>
        <mxCell id="p715lNvgheU7Gry9CAb6-320" value="&lt;span style=&quot;font-family: &amp;quot;Open Sans&amp;quot;; font-size: 12px;&quot;&gt;λ&lt;/span&gt;" style="edgeLabel;html=1;align=center;verticalAlign=middle;resizable=0;points=[];fontFamily=Open Sans;fontSize=12;fontColor=default;labelBackgroundColor=none;" parent="p715lNvgheU7Gry9CAb6-318" vertex="1" connectable="0">
          <mxGeometry x="0.0523" y="1" relative="1" as="geometry">
            <mxPoint x="-2" y="-9" as="offset" />
          </mxGeometry>
        </mxCell>
        <mxCell id="zTE5bsZSXoYTr9CKlFXF-25" style="edgeStyle=orthogonalEdgeStyle;curved=1;rounded=0;orthogonalLoop=1;jettySize=auto;html=1;exitX=0;exitY=1;exitDx=0;exitDy=0;entryX=0.5;entryY=1;entryDx=0;entryDy=0;strokeColor=#9673A6;align=center;verticalAlign=middle;fontFamily=Helvetica;fontSize=11;fontColor=default;labelBackgroundColor=default;endArrow=classic;" parent="1" source="p715lNvgheU7Gry9CAb6-303" target="p715lNvgheU7Gry9CAb6-142" edge="1">
          <mxGeometry relative="1" as="geometry">
            <Array as="points">
              <mxPoint x="852" y="540" />
              <mxPoint x="240" y="540" />
            </Array>
          </mxGeometry>
        </mxCell>
        <mxCell id="p715lNvgheU7Gry9CAb6-303" value="$$GW_{1}^{3}$$" style="ellipse;whiteSpace=wrap;html=1;aspect=fixed;fillColor=none;fontSize=16;fontFamily=Open Sans;strokeWidth=2;" parent="1" vertex="1">
          <mxGeometry x="840" y="360" width="80" height="80" as="geometry" />
        </mxCell>
        <mxCell id="p715lNvgheU7Gry9CAb6-316" style="edgeStyle=none;rounded=0;orthogonalLoop=1;jettySize=auto;html=1;exitX=1;exitY=0.5;exitDx=0;exitDy=0;entryX=0;entryY=0.5;entryDx=0;entryDy=0;strokeColor=default;align=center;verticalAlign=middle;fontFamily=Open Sans;fontSize=16;fontColor=default;labelBackgroundColor=default;endArrow=classic;" parent="1" source="p715lNvgheU7Gry9CAb6-310" target="p715lNvgheU7Gry9CAb6-311" edge="1">
          <mxGeometry relative="1" as="geometry" />
        </mxCell>
        <mxCell id="p715lNvgheU7Gry9CAb6-321" value="&lt;span style=&quot;font-size: 12px;&quot;&gt;$$P$$&lt;/span&gt;" style="edgeLabel;html=1;align=center;verticalAlign=middle;resizable=0;points=[];fontFamily=Open Sans;fontSize=12;fontColor=default;labelBackgroundColor=none;" parent="p715lNvgheU7Gry9CAb6-316" vertex="1" connectable="0">
          <mxGeometry x="-0.1647" y="4" relative="1" as="geometry">
            <mxPoint x="7" y="-6" as="offset" />
          </mxGeometry>
        </mxCell>
        <mxCell id="p715lNvgheU7Gry9CAb6-327" style="edgeStyle=orthogonalEdgeStyle;rounded=0;orthogonalLoop=1;jettySize=auto;html=1;exitX=0.5;exitY=0;exitDx=0;exitDy=0;entryX=0.5;entryY=0;entryDx=0;entryDy=0;strokeColor=default;align=center;verticalAlign=middle;fontFamily=Open Sans;fontSize=16;fontColor=default;labelBackgroundColor=default;endArrow=classic;curved=1;" parent="1" source="p715lNvgheU7Gry9CAb6-310" target="p715lNvgheU7Gry9CAb6-324" edge="1">
          <mxGeometry relative="1" as="geometry">
            <Array as="points">
              <mxPoint x="1840" y="160" />
              <mxPoint x="2160" y="160" />
            </Array>
          </mxGeometry>
        </mxCell>
        <mxCell id="p715lNvgheU7Gry9CAb6-328" value="$$R$$" style="edgeLabel;html=1;align=center;verticalAlign=middle;resizable=0;points=[];fontFamily=Open Sans;fontSize=12;fontColor=default;labelBackgroundColor=none;" parent="p715lNvgheU7Gry9CAb6-327" vertex="1" connectable="0">
          <mxGeometry x="-0.005" relative="1" as="geometry">
            <mxPoint y="-10" as="offset" />
          </mxGeometry>
        </mxCell>
        <mxCell id="p715lNvgheU7Gry9CAb6-331" style="edgeStyle=none;rounded=0;orthogonalLoop=1;jettySize=auto;html=1;exitX=0;exitY=1;exitDx=0;exitDy=0;entryX=1;entryY=1;entryDx=0;entryDy=0;strokeColor=default;align=center;verticalAlign=middle;fontFamily=Open Sans;fontSize=16;fontColor=default;labelBackgroundColor=default;endArrow=classic;" parent="1" source="p715lNvgheU7Gry9CAb6-310" target="p715lNvgheU7Gry9CAb6-236" edge="1">
          <mxGeometry relative="1" as="geometry" />
        </mxCell>
        <mxCell id="p715lNvgheU7Gry9CAb6-332" value="$$L$$" style="edgeLabel;html=1;align=center;verticalAlign=middle;resizable=0;points=[];fontFamily=Open Sans;fontSize=12;fontColor=default;labelBackgroundColor=none;" parent="p715lNvgheU7Gry9CAb6-331" vertex="1" connectable="0">
          <mxGeometry x="0.0483" y="-2" relative="1" as="geometry">
            <mxPoint y="-6" as="offset" />
          </mxGeometry>
        </mxCell>
        <mxCell id="p715lNvgheU7Gry9CAb6-509" style="edgeStyle=orthogonalEdgeStyle;rounded=0;orthogonalLoop=1;jettySize=auto;html=1;exitX=0.5;exitY=1;exitDx=0;exitDy=0;entryX=0.5;entryY=0;entryDx=0;entryDy=0;strokeColor=default;align=center;verticalAlign=middle;fontFamily=Open Sans;fontSize=16;fontColor=default;labelBackgroundColor=default;endArrow=classic;curved=1;" parent="1" source="p715lNvgheU7Gry9CAb6-324" target="p715lNvgheU7Gry9CAb6-471" edge="1">
          <mxGeometry relative="1" as="geometry">
            <Array as="points">
              <mxPoint x="2160" y="320" />
              <mxPoint x="1680" y="320" />
            </Array>
          </mxGeometry>
        </mxCell>
        <mxCell id="p715lNvgheU7Gry9CAb6-510" value="&lt;span style=&quot;font-size: 12px;&quot;&gt;$$LNB_{2}NB_{4}$$&lt;/span&gt;" style="edgeLabel;html=1;align=center;verticalAlign=middle;resizable=0;points=[];fontFamily=Open Sans;fontSize=12;fontColor=default;labelBackgroundColor=none;" parent="p715lNvgheU7Gry9CAb6-509" vertex="1" connectable="0">
          <mxGeometry x="-0.0261" y="-2" relative="1" as="geometry">
            <mxPoint x="-162" y="-8" as="offset" />
          </mxGeometry>
        </mxCell>
        <mxCell id="zTE5bsZSXoYTr9CKlFXF-32" style="edgeStyle=orthogonalEdgeStyle;curved=1;rounded=0;orthogonalLoop=1;jettySize=auto;html=1;exitX=0;exitY=0;exitDx=0;exitDy=0;entryX=0.5;entryY=0;entryDx=0;entryDy=0;strokeColor=#9673A6;align=center;verticalAlign=middle;fontFamily=Helvetica;fontSize=11;fontColor=default;labelBackgroundColor=default;endArrow=classic;" parent="1" source="p715lNvgheU7Gry9CAb6-310" target="p715lNvgheU7Gry9CAb6-142" edge="1">
          <mxGeometry relative="1" as="geometry">
            <Array as="points">
              <mxPoint x="1812" y="130" />
              <mxPoint x="240" y="130" />
            </Array>
          </mxGeometry>
        </mxCell>
        <mxCell id="p715lNvgheU7Gry9CAb6-310" value="$$GP_{2}^{3}$$" style="ellipse;whiteSpace=wrap;html=1;aspect=fixed;fillColor=none;fontSize=16;fontFamily=Open Sans;strokeWidth=2;" parent="1" vertex="1">
          <mxGeometry x="1800" y="200" width="80" height="80" as="geometry" />
        </mxCell>
        <mxCell id="p715lNvgheU7Gry9CAb6-329" style="edgeStyle=none;rounded=0;orthogonalLoop=1;jettySize=auto;html=1;exitX=0;exitY=1;exitDx=0;exitDy=0;entryX=1;entryY=1;entryDx=0;entryDy=0;strokeColor=default;align=center;verticalAlign=middle;fontFamily=Open Sans;fontSize=16;fontColor=default;labelBackgroundColor=default;endArrow=classic;" parent="1" source="p715lNvgheU7Gry9CAb6-311" target="p715lNvgheU7Gry9CAb6-310" edge="1">
          <mxGeometry relative="1" as="geometry" />
        </mxCell>
        <mxCell id="p715lNvgheU7Gry9CAb6-330" value="&lt;span style=&quot;font-size: 12px;&quot;&gt;λ&lt;/span&gt;" style="edgeLabel;html=1;align=center;verticalAlign=middle;resizable=0;points=[];fontFamily=Open Sans;fontSize=12;fontColor=default;labelBackgroundColor=none;" parent="p715lNvgheU7Gry9CAb6-329" vertex="1" connectable="0">
          <mxGeometry x="0.1329" y="1" relative="1" as="geometry">
            <mxPoint x="7" y="-9" as="offset" />
          </mxGeometry>
        </mxCell>
        <mxCell id="zTE5bsZSXoYTr9CKlFXF-37" style="edgeStyle=orthogonalEdgeStyle;curved=1;rounded=0;orthogonalLoop=1;jettySize=auto;html=1;exitX=0.5;exitY=0;exitDx=0;exitDy=0;entryX=0.5;entryY=0;entryDx=0;entryDy=0;strokeColor=#9673A6;align=center;verticalAlign=middle;fontFamily=Helvetica;fontSize=11;fontColor=default;labelBackgroundColor=default;endArrow=classic;" parent="1" source="p715lNvgheU7Gry9CAb6-311" target="p715lNvgheU7Gry9CAb6-142" edge="1">
          <mxGeometry relative="1" as="geometry">
            <Array as="points">
              <mxPoint x="2000" y="100" />
              <mxPoint x="240" y="100" />
            </Array>
          </mxGeometry>
        </mxCell>
        <mxCell id="p715lNvgheU7Gry9CAb6-311" value="$$NB_{2}^{3}$$" style="ellipse;whiteSpace=wrap;html=1;aspect=fixed;fillColor=none;fontSize=16;fontFamily=Open Sans;strokeWidth=2;" parent="1" vertex="1">
          <mxGeometry x="1960" y="200" width="80" height="80" as="geometry" />
        </mxCell>
        <mxCell id="zTE5bsZSXoYTr9CKlFXF-26" style="edgeStyle=orthogonalEdgeStyle;curved=1;rounded=0;orthogonalLoop=1;jettySize=auto;html=1;exitX=0.5;exitY=1;exitDx=0;exitDy=0;entryX=0.5;entryY=1;entryDx=0;entryDy=0;strokeColor=#9673A6;align=center;verticalAlign=middle;fontFamily=Helvetica;fontSize=11;fontColor=default;labelBackgroundColor=default;endArrow=classic;" parent="1" source="p715lNvgheU7Gry9CAb6-317" target="p715lNvgheU7Gry9CAb6-142" edge="1">
          <mxGeometry relative="1" as="geometry">
            <Array as="points">
              <mxPoint x="1040" y="580" />
              <mxPoint x="240" y="580" />
            </Array>
          </mxGeometry>
        </mxCell>
        <mxCell id="p715lNvgheU7Gry9CAb6-317" value="$$P_{3}^{3}$$" style="ellipse;whiteSpace=wrap;html=1;aspect=fixed;fillColor=none;fontSize=16;fontFamily=Open Sans;strokeWidth=2;" parent="1" vertex="1">
          <mxGeometry x="1000" y="360" width="80" height="80" as="geometry" />
        </mxCell>
        <mxCell id="p715lNvgheU7Gry9CAb6-340" style="edgeStyle=none;rounded=0;orthogonalLoop=1;jettySize=auto;html=1;exitX=1;exitY=0.5;exitDx=0;exitDy=0;entryX=0;entryY=0.5;entryDx=0;entryDy=0;strokeColor=default;align=center;verticalAlign=middle;fontFamily=Open Sans;fontSize=16;fontColor=default;labelBackgroundColor=default;endArrow=classic;" parent="1" source="p715lNvgheU7Gry9CAb6-324" target="p715lNvgheU7Gry9CAb6-339" edge="1">
          <mxGeometry relative="1" as="geometry" />
        </mxCell>
        <mxCell id="p715lNvgheU7Gry9CAb6-341" value="$$P$$" style="edgeLabel;html=1;align=center;verticalAlign=middle;resizable=0;points=[];fontFamily=Open Sans;fontSize=12;fontColor=default;labelBackgroundColor=none;" parent="p715lNvgheU7Gry9CAb6-340" vertex="1" connectable="0">
          <mxGeometry x="-0.0917" y="2" relative="1" as="geometry">
            <mxPoint x="4" y="-8" as="offset" />
          </mxGeometry>
        </mxCell>
        <mxCell id="p715lNvgheU7Gry9CAb6-402" style="edgeStyle=orthogonalEdgeStyle;rounded=0;orthogonalLoop=1;jettySize=auto;html=1;exitX=1;exitY=0;exitDx=0;exitDy=0;entryX=0.5;entryY=0;entryDx=0;entryDy=0;strokeColor=default;align=center;verticalAlign=middle;fontFamily=Open Sans;fontSize=16;fontColor=default;labelBackgroundColor=default;endArrow=classic;curved=1;" parent="1" source="p715lNvgheU7Gry9CAb6-324" target="p715lNvgheU7Gry9CAb6-349" edge="1">
          <mxGeometry relative="1" as="geometry">
            <Array as="points">
              <mxPoint x="2190" y="212" />
              <mxPoint x="2190" y="160" />
              <mxPoint x="2480" y="160" />
            </Array>
          </mxGeometry>
        </mxCell>
        <mxCell id="p715lNvgheU7Gry9CAb6-403" value="$$R$$" style="edgeLabel;html=1;align=center;verticalAlign=middle;resizable=0;points=[];fontFamily=Open Sans;fontSize=12;fontColor=default;labelBackgroundColor=none;" parent="p715lNvgheU7Gry9CAb6-402" vertex="1" connectable="0">
          <mxGeometry x="-0.003" y="1" relative="1" as="geometry">
            <mxPoint y="-9" as="offset" />
          </mxGeometry>
        </mxCell>
        <mxCell id="p715lNvgheU7Gry9CAb6-415" style="edgeStyle=orthogonalEdgeStyle;rounded=0;orthogonalLoop=1;jettySize=auto;html=1;exitX=0;exitY=1;exitDx=0;exitDy=0;entryX=0.5;entryY=1;entryDx=0;entryDy=0;strokeColor=default;align=center;verticalAlign=middle;fontFamily=Open Sans;fontSize=16;fontColor=default;labelBackgroundColor=default;endArrow=classic;curved=1;" parent="1" source="p715lNvgheU7Gry9CAb6-324" target="p715lNvgheU7Gry9CAb6-310" edge="1">
          <mxGeometry relative="1" as="geometry">
            <Array as="points">
              <mxPoint x="2132" y="300" />
              <mxPoint x="1840" y="300" />
            </Array>
          </mxGeometry>
        </mxCell>
        <mxCell id="p715lNvgheU7Gry9CAb6-416" value="$$L$$" style="edgeLabel;html=1;align=center;verticalAlign=middle;resizable=0;points=[];fontFamily=Open Sans;fontSize=12;fontColor=default;labelBackgroundColor=none;" parent="p715lNvgheU7Gry9CAb6-415" vertex="1" connectable="0">
          <mxGeometry x="0.0023" y="3" relative="1" as="geometry">
            <mxPoint y="-13" as="offset" />
          </mxGeometry>
        </mxCell>
        <mxCell id="zTE5bsZSXoYTr9CKlFXF-38" style="edgeStyle=orthogonalEdgeStyle;curved=1;rounded=0;orthogonalLoop=1;jettySize=auto;html=1;exitX=0;exitY=0;exitDx=0;exitDy=0;entryX=0.5;entryY=0;entryDx=0;entryDy=0;strokeColor=#9673A6;align=center;verticalAlign=middle;fontFamily=Helvetica;fontSize=11;fontColor=default;labelBackgroundColor=default;endArrow=classic;" parent="1" source="p715lNvgheU7Gry9CAb6-324" target="p715lNvgheU7Gry9CAb6-142" edge="1">
          <mxGeometry relative="1" as="geometry">
            <Array as="points">
              <mxPoint x="2132" y="80" />
              <mxPoint x="240" y="80" />
            </Array>
          </mxGeometry>
        </mxCell>
        <mxCell id="p715lNvgheU7Gry9CAb6-324" value="$$P_{8}^{3}$$" style="ellipse;whiteSpace=wrap;html=1;aspect=fixed;fillColor=none;fontSize=16;fontFamily=Open Sans;strokeWidth=2;" parent="1" vertex="1">
          <mxGeometry x="2120" y="200" width="80" height="80" as="geometry" />
        </mxCell>
        <mxCell id="p715lNvgheU7Gry9CAb6-404" style="edgeStyle=none;rounded=0;orthogonalLoop=1;jettySize=auto;html=1;exitX=0;exitY=1;exitDx=0;exitDy=0;entryX=1;entryY=1;entryDx=0;entryDy=0;strokeColor=default;align=center;verticalAlign=middle;fontFamily=Open Sans;fontSize=16;fontColor=default;labelBackgroundColor=default;endArrow=classic;" parent="1" source="p715lNvgheU7Gry9CAb6-339" target="p715lNvgheU7Gry9CAb6-324" edge="1">
          <mxGeometry relative="1" as="geometry" />
        </mxCell>
        <mxCell id="p715lNvgheU7Gry9CAb6-405" value="λ" style="edgeLabel;html=1;align=center;verticalAlign=middle;resizable=0;points=[];fontFamily=Open Sans;fontSize=12;fontColor=default;labelBackgroundColor=none;" parent="p715lNvgheU7Gry9CAb6-404" vertex="1" connectable="0">
          <mxGeometry x="-0.0275" y="-2" relative="1" as="geometry">
            <mxPoint y="-6" as="offset" />
          </mxGeometry>
        </mxCell>
        <mxCell id="zTE5bsZSXoYTr9CKlFXF-39" style="edgeStyle=orthogonalEdgeStyle;curved=1;rounded=0;orthogonalLoop=1;jettySize=auto;html=1;exitX=0.5;exitY=0;exitDx=0;exitDy=0;entryX=0.5;entryY=0;entryDx=0;entryDy=0;strokeColor=#9673A6;align=center;verticalAlign=middle;fontFamily=Helvetica;fontSize=11;fontColor=default;labelBackgroundColor=default;endArrow=classic;" parent="1" source="p715lNvgheU7Gry9CAb6-339" target="p715lNvgheU7Gry9CAb6-142" edge="1">
          <mxGeometry relative="1" as="geometry">
            <Array as="points">
              <mxPoint x="2320" y="50" />
              <mxPoint x="240" y="50" />
            </Array>
          </mxGeometry>
        </mxCell>
        <mxCell id="p715lNvgheU7Gry9CAb6-339" value="$$NB_{3}^{6}$$" style="ellipse;whiteSpace=wrap;html=1;aspect=fixed;fillColor=none;fontSize=16;fontFamily=Open Sans;strokeWidth=2;" parent="1" vertex="1">
          <mxGeometry x="2280" y="200" width="80" height="80" as="geometry" />
        </mxCell>
        <mxCell id="p715lNvgheU7Gry9CAb6-345" style="rounded=0;orthogonalLoop=1;jettySize=auto;html=1;exitX=1;exitY=0;exitDx=0;exitDy=0;entryX=0;entryY=0.5;entryDx=0;entryDy=0;strokeColor=default;align=center;verticalAlign=middle;fontFamily=Open Sans;fontSize=16;fontColor=default;labelBackgroundColor=default;endArrow=classic;" parent="1" source="p715lNvgheU7Gry9CAb6-359" target="p715lNvgheU7Gry9CAb6-353" edge="1">
          <mxGeometry relative="1" as="geometry" />
        </mxCell>
        <mxCell id="p715lNvgheU7Gry9CAb6-346" value="$$U$$" style="edgeLabel;html=1;align=center;verticalAlign=middle;resizable=0;points=[];labelBackgroundColor=none;fontFamily=Open Sans;fontSize=12;" parent="p715lNvgheU7Gry9CAb6-345" vertex="1" connectable="0">
          <mxGeometry x="-0.1328" relative="1" as="geometry">
            <mxPoint x="2" y="-19" as="offset" />
          </mxGeometry>
        </mxCell>
        <mxCell id="p715lNvgheU7Gry9CAb6-347" style="edgeStyle=none;rounded=0;orthogonalLoop=1;jettySize=auto;html=1;exitX=1;exitY=0.5;exitDx=0;exitDy=0;entryX=0;entryY=0.5;entryDx=0;entryDy=0;strokeColor=default;align=center;verticalAlign=middle;fontFamily=Open Sans;fontSize=16;fontColor=default;labelBackgroundColor=default;endArrow=classic;" parent="1" source="p715lNvgheU7Gry9CAb6-349" target="p715lNvgheU7Gry9CAb6-358" edge="1">
          <mxGeometry relative="1" as="geometry" />
        </mxCell>
        <mxCell id="p715lNvgheU7Gry9CAb6-348" value="&lt;span style=&quot;font-size: 12px;&quot;&gt;$$RNB_{3}$$&lt;/span&gt;" style="edgeLabel;html=1;align=center;verticalAlign=middle;resizable=0;points=[];fontFamily=Open Sans;fontSize=12;fontColor=default;labelBackgroundColor=none;" parent="p715lNvgheU7Gry9CAb6-347" vertex="1" connectable="0">
          <mxGeometry x="-0.0927" y="3" relative="1" as="geometry">
            <mxPoint x="4" y="-17" as="offset" />
          </mxGeometry>
        </mxCell>
        <mxCell id="p715lNvgheU7Gry9CAb6-420" style="edgeStyle=orthogonalEdgeStyle;rounded=0;orthogonalLoop=1;jettySize=auto;html=1;exitX=0.5;exitY=1;exitDx=0;exitDy=0;entryX=0.5;entryY=1;entryDx=0;entryDy=0;strokeColor=default;align=center;verticalAlign=middle;fontFamily=Open Sans;fontSize=16;fontColor=default;labelBackgroundColor=default;endArrow=classic;curved=1;" parent="1" source="p715lNvgheU7Gry9CAb6-349" target="p715lNvgheU7Gry9CAb6-324" edge="1">
          <mxGeometry relative="1" as="geometry">
            <Array as="points">
              <mxPoint x="2480" y="330" />
              <mxPoint x="2160" y="330" />
            </Array>
          </mxGeometry>
        </mxCell>
        <mxCell id="p715lNvgheU7Gry9CAb6-421" value="$$L$$" style="edgeLabel;html=1;align=center;verticalAlign=middle;resizable=0;points=[];fontFamily=Open Sans;fontSize=12;fontColor=default;labelBackgroundColor=none;" parent="p715lNvgheU7Gry9CAb6-420" vertex="1" connectable="0">
          <mxGeometry x="0.0082" y="-2" relative="1" as="geometry">
            <mxPoint x="2" y="-8" as="offset" />
          </mxGeometry>
        </mxCell>
        <mxCell id="zTE5bsZSXoYTr9CKlFXF-40" style="edgeStyle=orthogonalEdgeStyle;curved=1;rounded=0;orthogonalLoop=1;jettySize=auto;html=1;exitX=0;exitY=0;exitDx=0;exitDy=0;entryX=0.5;entryY=0;entryDx=0;entryDy=0;strokeColor=#9673A6;align=center;verticalAlign=middle;fontFamily=Helvetica;fontSize=11;fontColor=default;labelBackgroundColor=default;endArrow=classic;" parent="1" source="p715lNvgheU7Gry9CAb6-349" target="p715lNvgheU7Gry9CAb6-142" edge="1">
          <mxGeometry relative="1" as="geometry">
            <Array as="points">
              <mxPoint x="2452" y="30" />
              <mxPoint x="240" y="30" />
            </Array>
          </mxGeometry>
        </mxCell>
        <mxCell id="p715lNvgheU7Gry9CAb6-349" value="$$P_{9}^{3}$$" style="ellipse;whiteSpace=wrap;html=1;aspect=fixed;fillColor=none;fontSize=16;fontFamily=Open Sans;strokeWidth=2;" parent="1" vertex="1">
          <mxGeometry x="2440" y="200" width="80" height="80" as="geometry" />
        </mxCell>
        <mxCell id="p715lNvgheU7Gry9CAb6-350" style="rounded=0;orthogonalLoop=1;jettySize=auto;html=1;exitX=0;exitY=1;exitDx=0;exitDy=0;entryX=1;entryY=0.5;entryDx=0;entryDy=0;" parent="1" source="p715lNvgheU7Gry9CAb6-353" target="p715lNvgheU7Gry9CAb6-359" edge="1">
          <mxGeometry relative="1" as="geometry" />
        </mxCell>
        <mxCell id="p715lNvgheU7Gry9CAb6-351" value="λ" style="edgeLabel;html=1;align=center;verticalAlign=middle;resizable=0;points=[];fontFamily=Open Sans;fontSize=12;fontColor=default;labelBackgroundColor=none;" parent="p715lNvgheU7Gry9CAb6-350" vertex="1" connectable="0">
          <mxGeometry x="-0.029" y="-2" relative="1" as="geometry">
            <mxPoint x="-6" y="-12" as="offset" />
          </mxGeometry>
        </mxCell>
        <mxCell id="p715lNvgheU7Gry9CAb6-434" style="edgeStyle=none;rounded=0;orthogonalLoop=1;jettySize=auto;html=1;exitX=1;exitY=0.5;exitDx=0;exitDy=0;entryX=0;entryY=0;entryDx=0;entryDy=0;strokeColor=default;align=center;verticalAlign=middle;fontFamily=Open Sans;fontSize=16;fontColor=default;labelBackgroundColor=default;endArrow=classic;" parent="1" source="p715lNvgheU7Gry9CAb6-353" target="p715lNvgheU7Gry9CAb6-366" edge="1">
          <mxGeometry relative="1" as="geometry" />
        </mxCell>
        <mxCell id="p715lNvgheU7Gry9CAb6-436" value="λ" style="edgeLabel;html=1;align=center;verticalAlign=middle;resizable=0;points=[];fontFamily=Open Sans;fontSize=12;fontColor=default;labelBackgroundColor=default;" parent="p715lNvgheU7Gry9CAb6-434" vertex="1" connectable="0">
          <mxGeometry x="-0.1562" y="2" relative="1" as="geometry">
            <mxPoint x="10" y="-10" as="offset" />
          </mxGeometry>
        </mxCell>
        <mxCell id="zTE5bsZSXoYTr9CKlFXF-49" style="edgeStyle=orthogonalEdgeStyle;curved=1;rounded=0;orthogonalLoop=1;jettySize=auto;html=1;exitX=0.5;exitY=0;exitDx=0;exitDy=0;strokeColor=#9673A6;align=center;verticalAlign=middle;fontFamily=Helvetica;fontSize=11;fontColor=default;labelBackgroundColor=default;endArrow=classic;entryX=0.5;entryY=0;entryDx=0;entryDy=0;" parent="1" source="p715lNvgheU7Gry9CAb6-353" target="p715lNvgheU7Gry9CAb6-142" edge="1">
          <mxGeometry relative="1" as="geometry">
            <mxPoint x="620" y="-40" as="targetPoint" />
            <Array as="points">
              <mxPoint x="2960" y="-40" />
              <mxPoint x="240" y="-40" />
            </Array>
          </mxGeometry>
        </mxCell>
        <mxCell id="p715lNvgheU7Gry9CAb6-353" value="$$S_{2}^{6}$$" style="ellipse;whiteSpace=wrap;html=1;aspect=fixed;fillColor=none;fontSize=16;fontFamily=Open Sans;strokeWidth=2;" parent="1" vertex="1">
          <mxGeometry x="2920" y="120" width="80" height="80" as="geometry" />
        </mxCell>
        <mxCell id="p715lNvgheU7Gry9CAb6-354" style="edgeStyle=orthogonalEdgeStyle;rounded=0;orthogonalLoop=1;jettySize=auto;html=1;exitX=0;exitY=1;exitDx=0;exitDy=0;entryX=1;entryY=1;entryDx=0;entryDy=0;strokeColor=default;align=center;verticalAlign=middle;fontFamily=Open Sans;fontSize=16;fontColor=default;labelBackgroundColor=default;endArrow=classic;curved=1;" parent="1" source="p715lNvgheU7Gry9CAb6-359" target="p715lNvgheU7Gry9CAb6-349" edge="1">
          <mxGeometry relative="1" as="geometry">
            <Array as="points">
              <mxPoint x="2772" y="320" />
              <mxPoint x="2508" y="320" />
            </Array>
          </mxGeometry>
        </mxCell>
        <mxCell id="p715lNvgheU7Gry9CAb6-355" value="&lt;span style=&quot;font-size: 12px;&quot;&gt;$$L$$&lt;/span&gt;" style="edgeLabel;html=1;align=center;verticalAlign=middle;resizable=0;points=[];fontFamily=Open Sans;fontSize=12;fontColor=default;labelBackgroundColor=none;" parent="p715lNvgheU7Gry9CAb6-354" vertex="1" connectable="0">
          <mxGeometry x="0.0842" y="-3" relative="1" as="geometry">
            <mxPoint x="14" y="-5" as="offset" />
          </mxGeometry>
        </mxCell>
        <mxCell id="p715lNvgheU7Gry9CAb6-356" style="edgeStyle=none;rounded=0;orthogonalLoop=1;jettySize=auto;html=1;exitX=1;exitY=0.5;exitDx=0;exitDy=0;entryX=0;entryY=0.5;entryDx=0;entryDy=0;strokeColor=default;align=center;verticalAlign=middle;fontFamily=Open Sans;fontSize=16;fontColor=default;labelBackgroundColor=default;endArrow=classic;" parent="1" source="p715lNvgheU7Gry9CAb6-358" target="p715lNvgheU7Gry9CAb6-359" edge="1">
          <mxGeometry relative="1" as="geometry" />
        </mxCell>
        <mxCell id="p715lNvgheU7Gry9CAb6-357" value="&lt;span style=&quot;font-size: 12px;&quot;&gt;λ&lt;/span&gt;" style="edgeLabel;html=1;align=center;verticalAlign=middle;resizable=0;points=[];fontFamily=Open Sans;fontSize=12;fontColor=default;labelBackgroundColor=none;" parent="p715lNvgheU7Gry9CAb6-356" vertex="1" connectable="0">
          <mxGeometry x="0.0523" y="1" relative="1" as="geometry">
            <mxPoint x="-2" y="-9" as="offset" />
          </mxGeometry>
        </mxCell>
        <mxCell id="zTE5bsZSXoYTr9CKlFXF-45" style="edgeStyle=orthogonalEdgeStyle;curved=1;rounded=0;orthogonalLoop=1;jettySize=auto;html=1;exitX=0.5;exitY=0;exitDx=0;exitDy=0;entryX=0.5;entryY=0;entryDx=0;entryDy=0;strokeColor=#9673A6;align=center;verticalAlign=middle;fontFamily=Helvetica;fontSize=11;fontColor=default;labelBackgroundColor=default;endArrow=classic;" parent="1" source="p715lNvgheU7Gry9CAb6-358" target="p715lNvgheU7Gry9CAb6-142" edge="1">
          <mxGeometry relative="1" as="geometry">
            <Array as="points">
              <mxPoint x="2640" y="10" />
              <mxPoint x="240" y="10" />
            </Array>
          </mxGeometry>
        </mxCell>
        <mxCell id="p715lNvgheU7Gry9CAb6-358" value="$$GW_{3}^{3}$$" style="ellipse;whiteSpace=wrap;html=1;aspect=fixed;fillColor=none;fontSize=16;fontFamily=Open Sans;strokeWidth=2;" parent="1" vertex="1">
          <mxGeometry x="2600" y="200" width="80" height="80" as="geometry" />
        </mxCell>
        <mxCell id="zTE5bsZSXoYTr9CKlFXF-46" style="edgeStyle=orthogonalEdgeStyle;curved=1;rounded=0;orthogonalLoop=1;jettySize=auto;html=1;exitX=0.5;exitY=0;exitDx=0;exitDy=0;entryX=0.5;entryY=0;entryDx=0;entryDy=0;strokeColor=#9673A6;align=center;verticalAlign=middle;fontFamily=Helvetica;fontSize=11;fontColor=default;labelBackgroundColor=default;endArrow=classic;" parent="1" source="p715lNvgheU7Gry9CAb6-359" target="p715lNvgheU7Gry9CAb6-142" edge="1">
          <mxGeometry relative="1" as="geometry">
            <Array as="points">
              <mxPoint x="2800" y="-10" />
              <mxPoint x="240" y="-10" />
            </Array>
          </mxGeometry>
        </mxCell>
        <mxCell id="p715lNvgheU7Gry9CAb6-359" value="$$P_{11}^{3}$$" style="ellipse;whiteSpace=wrap;html=1;aspect=fixed;fillColor=none;fontSize=16;fontFamily=Open Sans;strokeWidth=2;" parent="1" vertex="1">
          <mxGeometry x="2760" y="200" width="80" height="80" as="geometry" />
        </mxCell>
        <mxCell id="p715lNvgheU7Gry9CAb6-439" style="edgeStyle=none;rounded=0;orthogonalLoop=1;jettySize=auto;html=1;exitX=0;exitY=1;exitDx=0;exitDy=0;entryX=1;entryY=1;entryDx=0;entryDy=0;strokeColor=default;align=center;verticalAlign=middle;fontFamily=Open Sans;fontSize=16;fontColor=default;labelBackgroundColor=default;endArrow=classic;" parent="1" source="p715lNvgheU7Gry9CAb6-360" target="p715lNvgheU7Gry9CAb6-397" edge="1">
          <mxGeometry relative="1" as="geometry" />
        </mxCell>
        <mxCell id="p715lNvgheU7Gry9CAb6-442" value="$$L$$" style="edgeLabel;html=1;align=center;verticalAlign=middle;resizable=0;points=[];fontFamily=Open Sans;fontSize=12;fontColor=default;labelBackgroundColor=none;" parent="p715lNvgheU7Gry9CAb6-439" vertex="1" connectable="0">
          <mxGeometry x="0.0593" y="-4" relative="1" as="geometry">
            <mxPoint x="3" y="-4" as="offset" />
          </mxGeometry>
        </mxCell>
        <mxCell id="p715lNvgheU7Gry9CAb6-459" style="edgeStyle=none;rounded=0;orthogonalLoop=1;jettySize=auto;html=1;exitX=0.5;exitY=0;exitDx=0;exitDy=0;entryX=0.5;entryY=1;entryDx=0;entryDy=0;strokeColor=default;align=center;verticalAlign=middle;fontFamily=Open Sans;fontSize=16;fontColor=default;labelBackgroundColor=default;endArrow=classic;" parent="1" source="p715lNvgheU7Gry9CAb6-360" target="p715lNvgheU7Gry9CAb6-366" edge="1">
          <mxGeometry relative="1" as="geometry" />
        </mxCell>
        <mxCell id="p715lNvgheU7Gry9CAb6-460" value="$$R$$" style="edgeLabel;html=1;align=center;verticalAlign=middle;resizable=0;points=[];fontFamily=Open Sans;fontSize=12;fontColor=default;labelBackgroundColor=none;" parent="p715lNvgheU7Gry9CAb6-459" vertex="1" connectable="0">
          <mxGeometry x="-0.0129" relative="1" as="geometry">
            <mxPoint x="-10" y="-1" as="offset" />
          </mxGeometry>
        </mxCell>
        <mxCell id="zTE5bsZSXoYTr9CKlFXF-44" style="edgeStyle=orthogonalEdgeStyle;curved=1;rounded=0;orthogonalLoop=1;jettySize=auto;html=1;exitX=0.5;exitY=1;exitDx=0;exitDy=0;entryX=0.5;entryY=1;entryDx=0;entryDy=0;strokeColor=#9673A6;align=center;verticalAlign=middle;fontFamily=Helvetica;fontSize=11;fontColor=default;labelBackgroundColor=default;endArrow=classic;" parent="1" source="p715lNvgheU7Gry9CAb6-360" target="p715lNvgheU7Gry9CAb6-142" edge="1">
          <mxGeometry relative="1" as="geometry">
            <Array as="points">
              <mxPoint x="3120" y="820" />
              <mxPoint x="240" y="820" />
            </Array>
          </mxGeometry>
        </mxCell>
        <mxCell id="p715lNvgheU7Gry9CAb6-360" value="$$P_{13}^{3}$$" style="ellipse;whiteSpace=wrap;html=1;aspect=fixed;fillColor=none;fontSize=16;fontFamily=Open Sans;strokeWidth=2;" parent="1" vertex="1">
          <mxGeometry x="3080" y="360" width="80" height="80" as="geometry" />
        </mxCell>
        <mxCell id="p715lNvgheU7Gry9CAb6-435" style="edgeStyle=none;rounded=0;orthogonalLoop=1;jettySize=auto;html=1;exitX=0;exitY=0.5;exitDx=0;exitDy=0;entryX=1;entryY=1;entryDx=0;entryDy=0;strokeColor=default;align=center;verticalAlign=middle;fontFamily=Open Sans;fontSize=16;fontColor=default;labelBackgroundColor=default;endArrow=classic;" parent="1" source="p715lNvgheU7Gry9CAb6-366" target="p715lNvgheU7Gry9CAb6-353" edge="1">
          <mxGeometry relative="1" as="geometry" />
        </mxCell>
        <mxCell id="p715lNvgheU7Gry9CAb6-437" value="$$D$$" style="edgeLabel;html=1;align=center;verticalAlign=middle;resizable=0;points=[];fontFamily=Open Sans;fontSize=12;fontColor=default;labelBackgroundColor=none;" parent="p715lNvgheU7Gry9CAb6-435" vertex="1" connectable="0">
          <mxGeometry x="-0.0104" relative="1" as="geometry">
            <mxPoint x="3" y="-14" as="offset" />
          </mxGeometry>
        </mxCell>
        <mxCell id="p715lNvgheU7Gry9CAb6-451" style="edgeStyle=none;rounded=0;orthogonalLoop=1;jettySize=auto;html=1;exitX=1;exitY=1;exitDx=0;exitDy=0;entryX=1;entryY=0;entryDx=0;entryDy=0;strokeColor=default;align=center;verticalAlign=middle;fontFamily=Open Sans;fontSize=16;fontColor=default;labelBackgroundColor=default;endArrow=classic;" parent="1" source="p715lNvgheU7Gry9CAb6-366" target="p715lNvgheU7Gry9CAb6-360" edge="1">
          <mxGeometry relative="1" as="geometry" />
        </mxCell>
        <mxCell id="p715lNvgheU7Gry9CAb6-453" value="$$L$$" style="edgeLabel;html=1;align=center;verticalAlign=middle;resizable=0;points=[];fontFamily=Open Sans;fontSize=12;fontColor=default;labelBackgroundColor=none;" parent="p715lNvgheU7Gry9CAb6-451" vertex="1" connectable="0">
          <mxGeometry x="0.0055" y="-1" relative="1" as="geometry">
            <mxPoint x="13" as="offset" />
          </mxGeometry>
        </mxCell>
        <mxCell id="p715lNvgheU7Gry9CAb6-493" style="edgeStyle=none;rounded=0;orthogonalLoop=1;jettySize=auto;html=1;exitX=1;exitY=0.5;exitDx=0;exitDy=0;entryX=0;entryY=0.5;entryDx=0;entryDy=0;strokeColor=default;align=center;verticalAlign=middle;fontFamily=Open Sans;fontSize=16;fontColor=default;labelBackgroundColor=default;endArrow=classic;" parent="1" source="p715lNvgheU7Gry9CAb6-366" target="p715lNvgheU7Gry9CAb6-492" edge="1">
          <mxGeometry relative="1" as="geometry" />
        </mxCell>
        <mxCell id="p715lNvgheU7Gry9CAb6-494" value="&lt;span style=&quot;font-size: 12px; text-wrap: wrap;&quot;&gt;$$NB_{5}$$&lt;/span&gt;" style="edgeLabel;html=1;align=center;verticalAlign=middle;resizable=0;points=[];fontFamily=Open Sans;fontSize=12;fontColor=default;labelBackgroundColor=none;" parent="p715lNvgheU7Gry9CAb6-493" vertex="1" connectable="0">
          <mxGeometry x="-0.005" y="1" relative="1" as="geometry">
            <mxPoint y="-9" as="offset" />
          </mxGeometry>
        </mxCell>
        <mxCell id="zTE5bsZSXoYTr9CKlFXF-50" style="edgeStyle=orthogonalEdgeStyle;curved=1;rounded=0;orthogonalLoop=1;jettySize=auto;html=1;exitX=0.5;exitY=0;exitDx=0;exitDy=0;strokeColor=#9673A6;align=center;verticalAlign=middle;fontFamily=Helvetica;fontSize=11;fontColor=default;labelBackgroundColor=default;endArrow=classic;entryX=0.5;entryY=0;entryDx=0;entryDy=0;" parent="1" source="p715lNvgheU7Gry9CAb6-366" target="p715lNvgheU7Gry9CAb6-142" edge="1">
          <mxGeometry relative="1" as="geometry">
            <mxPoint x="700" y="-110" as="targetPoint" />
            <Array as="points">
              <mxPoint x="3120" y="-60" />
              <mxPoint x="240" y="-60" />
            </Array>
          </mxGeometry>
        </mxCell>
        <mxCell id="p715lNvgheU7Gry9CAb6-366" value="$$P_{12}^{3}$$" style="ellipse;whiteSpace=wrap;html=1;aspect=fixed;fillColor=none;fontSize=16;fontFamily=Open Sans;strokeWidth=2;" parent="1" vertex="1">
          <mxGeometry x="3080" y="200" width="80" height="80" as="geometry" />
        </mxCell>
        <mxCell id="p715lNvgheU7Gry9CAb6-464" style="edgeStyle=orthogonalEdgeStyle;rounded=0;orthogonalLoop=1;jettySize=auto;html=1;exitX=0.5;exitY=1;exitDx=0;exitDy=0;entryX=0;entryY=1;entryDx=0;entryDy=0;strokeColor=default;align=center;verticalAlign=middle;fontFamily=Open Sans;fontSize=16;fontColor=default;labelBackgroundColor=default;endArrow=classic;curved=1;" parent="1" source="p715lNvgheU7Gry9CAb6-389" target="p715lNvgheU7Gry9CAb6-397" edge="1">
          <mxGeometry relative="1" as="geometry">
            <Array as="points">
              <mxPoint x="2640" y="480" />
              <mxPoint x="2932" y="480" />
            </Array>
          </mxGeometry>
        </mxCell>
        <mxCell id="p715lNvgheU7Gry9CAb6-465" value="$$R$$" style="edgeLabel;html=1;align=center;verticalAlign=middle;resizable=0;points=[];fontFamily=Open Sans;fontSize=12;fontColor=default;labelBackgroundColor=none;" parent="p715lNvgheU7Gry9CAb6-464" vertex="1" connectable="0">
          <mxGeometry x="0.0005" y="-2" relative="1" as="geometry">
            <mxPoint y="-12" as="offset" />
          </mxGeometry>
        </mxCell>
        <mxCell id="p715lNvgheU7Gry9CAb6-466" style="edgeStyle=orthogonalEdgeStyle;rounded=0;orthogonalLoop=1;jettySize=auto;html=1;exitX=0;exitY=1;exitDx=0;exitDy=0;entryX=0.5;entryY=1;entryDx=0;entryDy=0;strokeColor=default;align=center;verticalAlign=middle;fontFamily=Open Sans;fontSize=16;fontColor=default;labelBackgroundColor=default;endArrow=classic;curved=1;" parent="1" source="p715lNvgheU7Gry9CAb6-389" target="p715lNvgheU7Gry9CAb6-184" edge="1">
          <mxGeometry relative="1" as="geometry">
            <Array as="points">
              <mxPoint x="2612" y="600" />
              <mxPoint x="1360" y="600" />
            </Array>
          </mxGeometry>
        </mxCell>
        <mxCell id="p715lNvgheU7Gry9CAb6-491" value="$$L$$" style="edgeLabel;html=1;align=center;verticalAlign=middle;resizable=0;points=[];fontFamily=Open Sans;fontSize=12;fontColor=default;labelBackgroundColor=none;" parent="p715lNvgheU7Gry9CAb6-466" vertex="1" connectable="0">
          <mxGeometry x="-0.0966" relative="1" as="geometry">
            <mxPoint x="4" y="-10" as="offset" />
          </mxGeometry>
        </mxCell>
        <mxCell id="zTE5bsZSXoYTr9CKlFXF-41" style="edgeStyle=orthogonalEdgeStyle;curved=1;rounded=0;orthogonalLoop=1;jettySize=auto;html=1;exitX=0;exitY=0.5;exitDx=0;exitDy=0;entryX=0.5;entryY=1;entryDx=0;entryDy=0;strokeColor=#9673A6;align=center;verticalAlign=middle;fontFamily=Helvetica;fontSize=11;fontColor=default;labelBackgroundColor=default;endArrow=classic;" parent="1" source="p715lNvgheU7Gry9CAb6-389" target="p715lNvgheU7Gry9CAb6-142" edge="1">
          <mxGeometry relative="1" as="geometry">
            <Array as="points">
              <mxPoint x="2600" y="740" />
              <mxPoint x="240" y="740" />
            </Array>
          </mxGeometry>
        </mxCell>
        <mxCell id="p715lNvgheU7Gry9CAb6-389" value="$$P_{10}^{3}$$" style="ellipse;whiteSpace=wrap;html=1;aspect=fixed;fillColor=none;fontSize=16;fontFamily=Open Sans;strokeWidth=2;" parent="1" vertex="1">
          <mxGeometry x="2600" y="360" width="80" height="80" as="geometry" />
        </mxCell>
        <mxCell id="p715lNvgheU7Gry9CAb6-390" style="edgeStyle=none;rounded=0;orthogonalLoop=1;jettySize=auto;html=1;exitX=1;exitY=0.5;exitDx=0;exitDy=0;entryX=0;entryY=0.5;entryDx=0;entryDy=0;strokeColor=default;align=center;verticalAlign=middle;fontFamily=Open Sans;fontSize=16;fontColor=default;labelBackgroundColor=default;endArrow=classic;" parent="1" source="p715lNvgheU7Gry9CAb6-394" target="p715lNvgheU7Gry9CAb6-397" edge="1">
          <mxGeometry relative="1" as="geometry" />
        </mxCell>
        <mxCell id="p715lNvgheU7Gry9CAb6-391" value="λ" style="edgeLabel;html=1;align=center;verticalAlign=middle;resizable=0;points=[];fontFamily=Open Sans;fontSize=12;fontColor=default;labelBackgroundColor=default;" parent="p715lNvgheU7Gry9CAb6-390" vertex="1" connectable="0">
          <mxGeometry x="-0.0406" y="5" relative="1" as="geometry">
            <mxPoint y="-5" as="offset" />
          </mxGeometry>
        </mxCell>
        <mxCell id="zTE5bsZSXoYTr9CKlFXF-42" style="edgeStyle=orthogonalEdgeStyle;curved=1;rounded=0;orthogonalLoop=1;jettySize=auto;html=1;exitX=0;exitY=1;exitDx=0;exitDy=0;strokeColor=#9673A6;align=center;verticalAlign=middle;fontFamily=Helvetica;fontSize=11;fontColor=default;labelBackgroundColor=default;endArrow=classic;entryX=0.5;entryY=1;entryDx=0;entryDy=0;" parent="1" source="p715lNvgheU7Gry9CAb6-394" target="p715lNvgheU7Gry9CAb6-142" edge="1">
          <mxGeometry relative="1" as="geometry">
            <mxPoint x="470" y="720" as="targetPoint" />
            <Array as="points">
              <mxPoint x="2772" y="770" />
              <mxPoint x="240" y="770" />
            </Array>
          </mxGeometry>
        </mxCell>
        <mxCell id="p715lNvgheU7Gry9CAb6-394" value="$$NB_{4}^{3}$$" style="ellipse;whiteSpace=wrap;html=1;aspect=fixed;fillColor=none;fontSize=16;fontFamily=Open Sans;strokeWidth=2;" parent="1" vertex="1">
          <mxGeometry x="2760" y="360" width="80" height="80" as="geometry" />
        </mxCell>
        <mxCell id="p715lNvgheU7Gry9CAb6-395" style="edgeStyle=none;rounded=0;orthogonalLoop=1;jettySize=auto;html=1;exitX=0;exitY=1;exitDx=0;exitDy=0;entryX=1;entryY=1;entryDx=0;entryDy=0;strokeColor=default;align=center;verticalAlign=middle;fontFamily=Open Sans;fontSize=16;fontColor=default;labelBackgroundColor=default;endArrow=classic;" parent="1" source="p715lNvgheU7Gry9CAb6-397" target="p715lNvgheU7Gry9CAb6-394" edge="1">
          <mxGeometry relative="1" as="geometry" />
        </mxCell>
        <mxCell id="p715lNvgheU7Gry9CAb6-396" value="$$P$$" style="edgeLabel;html=1;align=center;verticalAlign=middle;resizable=0;points=[];fontFamily=Open Sans;fontSize=12;fontColor=default;labelBackgroundColor=none;" parent="p715lNvgheU7Gry9CAb6-395" vertex="1" connectable="0">
          <mxGeometry x="0.0097" y="-4" relative="1" as="geometry">
            <mxPoint y="-4" as="offset" />
          </mxGeometry>
        </mxCell>
        <mxCell id="p715lNvgheU7Gry9CAb6-440" style="edgeStyle=none;rounded=0;orthogonalLoop=1;jettySize=auto;html=1;exitX=1;exitY=0.5;exitDx=0;exitDy=0;entryX=0;entryY=0.5;entryDx=0;entryDy=0;strokeColor=default;align=center;verticalAlign=middle;fontFamily=Open Sans;fontSize=16;fontColor=default;labelBackgroundColor=default;endArrow=classic;" parent="1" source="p715lNvgheU7Gry9CAb6-397" target="p715lNvgheU7Gry9CAb6-360" edge="1">
          <mxGeometry relative="1" as="geometry" />
        </mxCell>
        <mxCell id="p715lNvgheU7Gry9CAb6-441" value="$$R$$" style="edgeLabel;html=1;align=center;verticalAlign=middle;resizable=0;points=[];fontFamily=Open Sans;fontSize=12;fontColor=default;labelBackgroundColor=none;" parent="p715lNvgheU7Gry9CAb6-440" vertex="1" connectable="0">
          <mxGeometry x="-0.06" y="4" relative="1" as="geometry">
            <mxPoint x="2" y="-4" as="offset" />
          </mxGeometry>
        </mxCell>
        <mxCell id="p715lNvgheU7Gry9CAb6-462" style="edgeStyle=orthogonalEdgeStyle;rounded=0;orthogonalLoop=1;jettySize=auto;html=1;exitX=0.5;exitY=0;exitDx=0;exitDy=0;entryX=0.5;entryY=0;entryDx=0;entryDy=0;strokeColor=default;align=center;verticalAlign=middle;fontFamily=Open Sans;fontSize=16;fontColor=default;labelBackgroundColor=default;endArrow=classic;elbow=vertical;curved=1;" parent="1" source="p715lNvgheU7Gry9CAb6-397" target="p715lNvgheU7Gry9CAb6-389" edge="1">
          <mxGeometry relative="1" as="geometry">
            <Array as="points">
              <mxPoint x="2960" y="330" />
              <mxPoint x="2640" y="330" />
            </Array>
          </mxGeometry>
        </mxCell>
        <mxCell id="p715lNvgheU7Gry9CAb6-463" value="$$L$$" style="edgeLabel;html=1;align=center;verticalAlign=middle;resizable=0;points=[];fontFamily=Open Sans;fontSize=12;fontColor=default;labelBackgroundColor=none;" parent="p715lNvgheU7Gry9CAb6-462" vertex="1" connectable="0">
          <mxGeometry x="0.0024" y="-2" relative="1" as="geometry">
            <mxPoint x="1" y="-8" as="offset" />
          </mxGeometry>
        </mxCell>
        <mxCell id="zTE5bsZSXoYTr9CKlFXF-43" style="edgeStyle=orthogonalEdgeStyle;curved=1;rounded=0;orthogonalLoop=1;jettySize=auto;html=1;exitX=0.5;exitY=1;exitDx=0;exitDy=0;strokeColor=#9673A6;align=center;verticalAlign=middle;fontFamily=Helvetica;fontSize=11;fontColor=default;labelBackgroundColor=default;endArrow=classic;entryX=0.5;entryY=1;entryDx=0;entryDy=0;" parent="1" source="p715lNvgheU7Gry9CAb6-397" target="p715lNvgheU7Gry9CAb6-142" edge="1">
          <mxGeometry relative="1" as="geometry">
            <mxPoint x="410" y="760" as="targetPoint" />
            <Array as="points">
              <mxPoint x="2960" y="800" />
              <mxPoint x="240" y="800" />
            </Array>
          </mxGeometry>
        </mxCell>
        <mxCell id="p715lNvgheU7Gry9CAb6-397" value="$$GP_{4}^{3}$$" style="ellipse;whiteSpace=wrap;html=1;aspect=fixed;fillColor=none;fontSize=16;fontFamily=Open Sans;strokeWidth=2;" parent="1" vertex="1">
          <mxGeometry x="2920" y="360" width="80" height="80" as="geometry" />
        </mxCell>
        <mxCell id="p715lNvgheU7Gry9CAb6-467" style="edgeStyle=none;rounded=0;orthogonalLoop=1;jettySize=auto;html=1;exitX=1;exitY=0.5;exitDx=0;exitDy=0;entryX=0;entryY=0.5;entryDx=0;entryDy=0;strokeColor=default;align=center;verticalAlign=middle;fontFamily=Open Sans;fontSize=16;fontColor=default;labelBackgroundColor=default;endArrow=classic;" parent="1" source="p715lNvgheU7Gry9CAb6-471" target="p715lNvgheU7Gry9CAb6-474" edge="1">
          <mxGeometry relative="1" as="geometry" />
        </mxCell>
        <mxCell id="p715lNvgheU7Gry9CAb6-468" value="&lt;span style=&quot;font-size: 12px;&quot;&gt;$$P$$&lt;/span&gt;" style="edgeLabel;html=1;align=center;verticalAlign=middle;resizable=0;points=[];fontFamily=Open Sans;fontSize=12;fontColor=default;labelBackgroundColor=none;" parent="p715lNvgheU7Gry9CAb6-467" vertex="1" connectable="0">
          <mxGeometry x="-0.1647" y="4" relative="1" as="geometry">
            <mxPoint x="7" y="-6" as="offset" />
          </mxGeometry>
        </mxCell>
        <mxCell id="p715lNvgheU7Gry9CAb6-481" style="edgeStyle=orthogonalEdgeStyle;rounded=0;orthogonalLoop=1;jettySize=auto;html=1;exitX=1;exitY=0;exitDx=0;exitDy=0;entryX=0.5;entryY=0;entryDx=0;entryDy=0;strokeColor=default;align=center;verticalAlign=middle;fontFamily=Open Sans;fontSize=16;fontColor=default;labelBackgroundColor=default;endArrow=classic;curved=1;" parent="1" source="p715lNvgheU7Gry9CAb6-471" target="p715lNvgheU7Gry9CAb6-477" edge="1">
          <mxGeometry relative="1" as="geometry">
            <Array as="points">
              <mxPoint x="1710" y="382" />
              <mxPoint x="1710" y="340" />
              <mxPoint x="2000" y="340" />
            </Array>
          </mxGeometry>
        </mxCell>
        <mxCell id="p715lNvgheU7Gry9CAb6-482" value="$$R$$" style="edgeLabel;html=1;align=center;verticalAlign=middle;resizable=0;points=[];fontFamily=Open Sans;fontSize=12;fontColor=default;labelBackgroundColor=none;" parent="p715lNvgheU7Gry9CAb6-481" vertex="1" connectable="0">
          <mxGeometry x="0.0193" y="-3" relative="1" as="geometry">
            <mxPoint y="-13" as="offset" />
          </mxGeometry>
        </mxCell>
        <mxCell id="zTE5bsZSXoYTr9CKlFXF-33" style="edgeStyle=orthogonalEdgeStyle;curved=1;rounded=0;orthogonalLoop=1;jettySize=auto;html=1;exitX=0;exitY=0.5;exitDx=0;exitDy=0;entryX=0.5;entryY=1;entryDx=0;entryDy=0;strokeColor=#9673A6;align=center;verticalAlign=middle;fontFamily=Helvetica;fontSize=11;fontColor=default;labelBackgroundColor=default;endArrow=classic;" parent="1" source="p715lNvgheU7Gry9CAb6-471" target="p715lNvgheU7Gry9CAb6-142" edge="1">
          <mxGeometry relative="1" as="geometry">
            <Array as="points">
              <mxPoint x="1640" y="650" />
              <mxPoint x="240" y="650" />
            </Array>
          </mxGeometry>
        </mxCell>
        <mxCell id="p715lNvgheU7Gry9CAb6-471" value="$$P_{6}^{12}$$" style="ellipse;whiteSpace=wrap;html=1;aspect=fixed;fillColor=none;fontSize=16;fontFamily=Open Sans;strokeWidth=2;" parent="1" vertex="1">
          <mxGeometry x="1640" y="370" width="80" height="80" as="geometry" />
        </mxCell>
        <mxCell id="p715lNvgheU7Gry9CAb6-472" style="edgeStyle=none;rounded=0;orthogonalLoop=1;jettySize=auto;html=1;exitX=0;exitY=1;exitDx=0;exitDy=0;entryX=1;entryY=1;entryDx=0;entryDy=0;strokeColor=default;align=center;verticalAlign=middle;fontFamily=Open Sans;fontSize=16;fontColor=default;labelBackgroundColor=default;endArrow=classic;" parent="1" source="p715lNvgheU7Gry9CAb6-474" target="p715lNvgheU7Gry9CAb6-471" edge="1">
          <mxGeometry relative="1" as="geometry" />
        </mxCell>
        <mxCell id="p715lNvgheU7Gry9CAb6-473" value="&lt;span style=&quot;font-size: 12px;&quot;&gt;λ&lt;/span&gt;" style="edgeLabel;html=1;align=center;verticalAlign=middle;resizable=0;points=[];fontFamily=Open Sans;fontSize=12;fontColor=default;labelBackgroundColor=none;" parent="p715lNvgheU7Gry9CAb6-472" vertex="1" connectable="0">
          <mxGeometry x="0.1329" y="1" relative="1" as="geometry">
            <mxPoint x="7" y="-9" as="offset" />
          </mxGeometry>
        </mxCell>
        <mxCell id="zTE5bsZSXoYTr9CKlFXF-35" style="edgeStyle=orthogonalEdgeStyle;curved=1;rounded=0;orthogonalLoop=1;jettySize=auto;html=1;exitX=0;exitY=1;exitDx=0;exitDy=0;strokeColor=#9673A6;align=center;verticalAlign=middle;fontFamily=Helvetica;fontSize=11;fontColor=default;labelBackgroundColor=default;endArrow=classic;entryX=0.5;entryY=1;entryDx=0;entryDy=0;" parent="1" source="p715lNvgheU7Gry9CAb6-474" target="p715lNvgheU7Gry9CAb6-142" edge="1">
          <mxGeometry relative="1" as="geometry">
            <mxPoint x="580" y="760.0000000000002" as="targetPoint" />
            <Array as="points">
              <mxPoint x="1812" y="670" />
              <mxPoint x="240" y="670" />
            </Array>
          </mxGeometry>
        </mxCell>
        <mxCell id="p715lNvgheU7Gry9CAb6-474" value="$$NB_{5}^{6}$$" style="ellipse;whiteSpace=wrap;html=1;aspect=fixed;fillColor=none;fontSize=16;fontFamily=Open Sans;strokeWidth=2;" parent="1" vertex="1">
          <mxGeometry x="1800" y="370" width="80" height="80" as="geometry" />
        </mxCell>
        <mxCell id="p715lNvgheU7Gry9CAb6-483" style="edgeStyle=orthogonalEdgeStyle;rounded=0;orthogonalLoop=1;jettySize=auto;html=1;exitX=0.5;exitY=1;exitDx=0;exitDy=0;entryX=0.5;entryY=1;entryDx=0;entryDy=0;strokeColor=default;align=center;verticalAlign=middle;fontFamily=Open Sans;fontSize=16;fontColor=default;labelBackgroundColor=default;endArrow=classic;curved=1;" parent="1" source="p715lNvgheU7Gry9CAb6-477" target="p715lNvgheU7Gry9CAb6-471" edge="1">
          <mxGeometry relative="1" as="geometry">
            <Array as="points">
              <mxPoint x="2000" y="480" />
              <mxPoint x="1680" y="480" />
            </Array>
          </mxGeometry>
        </mxCell>
        <mxCell id="p715lNvgheU7Gry9CAb6-484" value="$$L$$" style="edgeLabel;html=1;align=center;verticalAlign=middle;resizable=0;points=[];fontFamily=Open Sans;fontSize=12;fontColor=default;labelBackgroundColor=none;" parent="p715lNvgheU7Gry9CAb6-483" vertex="1" connectable="0">
          <mxGeometry x="0.0019" relative="1" as="geometry">
            <mxPoint y="-10" as="offset" />
          </mxGeometry>
        </mxCell>
        <mxCell id="zTE5bsZSXoYTr9CKlFXF-36" style="edgeStyle=orthogonalEdgeStyle;curved=1;rounded=0;orthogonalLoop=1;jettySize=auto;html=1;exitX=0;exitY=1;exitDx=0;exitDy=0;strokeColor=#9673A6;align=center;verticalAlign=middle;fontFamily=Helvetica;fontSize=11;fontColor=default;labelBackgroundColor=default;endArrow=classic;entryX=0.5;entryY=1;entryDx=0;entryDy=0;" parent="1" source="p715lNvgheU7Gry9CAb6-477" target="p715lNvgheU7Gry9CAb6-142" edge="1">
          <mxGeometry relative="1" as="geometry">
            <mxPoint x="910" y="800.0000000000002" as="targetPoint" />
            <Array as="points">
              <mxPoint x="1972" y="690" />
              <mxPoint x="240" y="690" />
            </Array>
          </mxGeometry>
        </mxCell>
        <mxCell id="p715lNvgheU7Gry9CAb6-477" value="$$P_{7}^{6}$$" style="ellipse;whiteSpace=wrap;html=1;aspect=fixed;fillColor=none;fontSize=16;fontFamily=Open Sans;strokeWidth=2;" parent="1" vertex="1">
          <mxGeometry x="1960" y="370" width="80" height="80" as="geometry" />
        </mxCell>
        <mxCell id="p715lNvgheU7Gry9CAb6-489" style="edgeStyle=orthogonalEdgeStyle;rounded=0;orthogonalLoop=1;jettySize=auto;html=1;exitX=0.5;exitY=1;exitDx=0;exitDy=0;entryX=0;entryY=1;entryDx=0;entryDy=0;strokeColor=default;align=center;verticalAlign=middle;fontFamily=Open Sans;fontSize=16;fontColor=default;labelBackgroundColor=default;endArrow=classic;curved=1;" parent="1" source="p715lNvgheU7Gry9CAb6-397" target="p715lNvgheU7Gry9CAb6-471" edge="1">
          <mxGeometry relative="1" as="geometry">
            <mxPoint x="2632" y="448" as="sourcePoint" />
            <mxPoint x="1380" y="300" as="targetPoint" />
            <Array as="points">
              <mxPoint x="2960" y="550" />
              <mxPoint x="1652" y="550" />
            </Array>
          </mxGeometry>
        </mxCell>
        <mxCell id="p715lNvgheU7Gry9CAb6-490" value="$$RNB_{2}NB_{4}$$" style="edgeLabel;html=1;align=center;verticalAlign=middle;resizable=0;points=[];fontFamily=Open Sans;fontSize=12;fontColor=default;labelBackgroundColor=none;" parent="p715lNvgheU7Gry9CAb6-489" vertex="1" connectable="0">
          <mxGeometry x="0.1713" y="2" relative="1" as="geometry">
            <mxPoint y="-22" as="offset" />
          </mxGeometry>
        </mxCell>
        <mxCell id="p715lNvgheU7Gry9CAb6-495" style="edgeStyle=none;rounded=0;orthogonalLoop=1;jettySize=auto;html=1;exitX=0;exitY=1;exitDx=0;exitDy=0;entryX=1;entryY=1;entryDx=0;entryDy=0;strokeColor=default;align=center;verticalAlign=middle;fontFamily=Open Sans;fontSize=16;fontColor=default;labelBackgroundColor=default;endArrow=classic;" parent="1" source="p715lNvgheU7Gry9CAb6-492" target="p715lNvgheU7Gry9CAb6-366" edge="1">
          <mxGeometry relative="1" as="geometry" />
        </mxCell>
        <mxCell id="p715lNvgheU7Gry9CAb6-496" value="$$L$$" style="edgeLabel;html=1;align=center;verticalAlign=middle;resizable=0;points=[];fontFamily=Open Sans;fontSize=12;fontColor=default;labelBackgroundColor=none;" parent="p715lNvgheU7Gry9CAb6-495" vertex="1" connectable="0">
          <mxGeometry x="-0.004" relative="1" as="geometry">
            <mxPoint y="-8" as="offset" />
          </mxGeometry>
        </mxCell>
        <mxCell id="p715lNvgheU7Gry9CAb6-498" style="edgeStyle=none;rounded=0;orthogonalLoop=1;jettySize=auto;html=1;exitX=0.5;exitY=1;exitDx=0;exitDy=0;strokeColor=default;align=center;verticalAlign=middle;fontFamily=Open Sans;fontSize=16;fontColor=default;labelBackgroundColor=default;endArrow=classic;" parent="1" edge="1">
          <mxGeometry relative="1" as="geometry">
            <mxPoint x="3281" y="280.0000000000001" as="sourcePoint" />
            <mxPoint x="3280" y="360" as="targetPoint" />
          </mxGeometry>
        </mxCell>
        <mxCell id="p715lNvgheU7Gry9CAb6-499" value="$$RNB_{5}$$" style="edgeLabel;html=1;align=center;verticalAlign=middle;resizable=0;points=[];fontFamily=Open Sans;fontSize=12;fontColor=default;labelBackgroundColor=none;" parent="p715lNvgheU7Gry9CAb6-498" vertex="1" connectable="0">
          <mxGeometry x="-0.0704" y="-2" relative="1" as="geometry">
            <mxPoint x="-28" y="3" as="offset" />
          </mxGeometry>
        </mxCell>
        <mxCell id="zTE5bsZSXoYTr9CKlFXF-51" style="edgeStyle=orthogonalEdgeStyle;curved=1;rounded=0;orthogonalLoop=1;jettySize=auto;html=1;exitX=0.5;exitY=0;exitDx=0;exitDy=0;strokeColor=#9673A6;align=center;verticalAlign=middle;fontFamily=Helvetica;fontSize=11;fontColor=default;labelBackgroundColor=default;endArrow=classic;entryX=0.5;entryY=0;entryDx=0;entryDy=0;" parent="1" source="p715lNvgheU7Gry9CAb6-492" target="p715lNvgheU7Gry9CAb6-142" edge="1">
          <mxGeometry relative="1" as="geometry">
            <mxPoint x="1100" y="-200" as="targetPoint" />
            <Array as="points">
              <mxPoint x="3280" y="-80" />
              <mxPoint x="240" y="-80" />
            </Array>
          </mxGeometry>
        </mxCell>
        <mxCell id="p715lNvgheU7Gry9CAb6-492" value="$$GP_{2}^{3}$$" style="ellipse;whiteSpace=wrap;html=1;aspect=fixed;fillColor=none;fontSize=16;fontFamily=Open Sans;strokeWidth=2;" parent="1" vertex="1">
          <mxGeometry x="3240" y="200" width="80" height="80" as="geometry" />
        </mxCell>
        <mxCell id="zTE5bsZSXoYTr9CKlFXF-12" style="edgeStyle=orthogonalEdgeStyle;rounded=0;orthogonalLoop=1;jettySize=auto;html=1;exitX=1;exitY=0.5;exitDx=0;exitDy=0;entryX=0;entryY=0.5;entryDx=0;entryDy=0;" parent="1" source="p715lNvgheU7Gry9CAb6-497" target="p715lNvgheU7Gry9CAb6-505" edge="1">
          <mxGeometry relative="1" as="geometry" />
        </mxCell>
        <mxCell id="zTE5bsZSXoYTr9CKlFXF-13" value="$$O$$" style="edgeLabel;html=1;align=center;verticalAlign=middle;resizable=0;points=[];labelBackgroundColor=none;fontFamily=Open Sans;" parent="zTE5bsZSXoYTr9CKlFXF-12" vertex="1" connectable="0">
          <mxGeometry x="-0.0615" y="-2" relative="1" as="geometry">
            <mxPoint y="-12" as="offset" />
          </mxGeometry>
        </mxCell>
        <mxCell id="zTE5bsZSXoYTr9CKlFXF-52" style="edgeStyle=orthogonalEdgeStyle;curved=1;rounded=0;orthogonalLoop=1;jettySize=auto;html=1;exitX=0.5;exitY=1;exitDx=0;exitDy=0;strokeColor=#9673A6;align=center;verticalAlign=middle;fontFamily=Helvetica;fontSize=11;fontColor=default;labelBackgroundColor=default;endArrow=classic;entryX=0.5;entryY=1;entryDx=0;entryDy=0;" parent="1" source="p715lNvgheU7Gry9CAb6-497" target="p715lNvgheU7Gry9CAb6-142" edge="1">
          <mxGeometry relative="1" as="geometry">
            <mxPoint x="1070" y="980" as="targetPoint" />
            <Array as="points">
              <mxPoint x="3440" y="860" />
              <mxPoint x="240" y="860" />
            </Array>
          </mxGeometry>
        </mxCell>
        <mxCell id="XBu-y18PQJPCOyqMYqS6-3" style="edgeStyle=orthogonalEdgeStyle;rounded=0;orthogonalLoop=1;jettySize=auto;html=1;exitX=0;exitY=1;exitDx=0;exitDy=0;entryX=1;entryY=1;entryDx=0;entryDy=0;" edge="1" parent="1" source="p715lNvgheU7Gry9CAb6-497" target="p715lNvgheU7Gry9CAb6-500">
          <mxGeometry relative="1" as="geometry" />
        </mxCell>
        <mxCell id="XBu-y18PQJPCOyqMYqS6-4" value="$$L$$" style="edgeLabel;html=1;align=center;verticalAlign=middle;resizable=0;points=[];labelBackgroundColor=none;fontSize=12;" vertex="1" connectable="0" parent="XBu-y18PQJPCOyqMYqS6-3">
          <mxGeometry x="0.0373" y="-2" relative="1" as="geometry">
            <mxPoint x="2" y="-6" as="offset" />
          </mxGeometry>
        </mxCell>
        <mxCell id="p715lNvgheU7Gry9CAb6-497" value="$$P_{14}^{3}$$" style="ellipse;whiteSpace=wrap;html=1;aspect=fixed;fillColor=none;fontSize=16;fontFamily=Open Sans;strokeWidth=2;" parent="1" vertex="1">
          <mxGeometry x="3400" y="360" width="80" height="80" as="geometry" />
        </mxCell>
        <mxCell id="p715lNvgheU7Gry9CAb6-506" style="edgeStyle=none;rounded=0;orthogonalLoop=1;jettySize=auto;html=1;exitX=1;exitY=0.5;exitDx=0;exitDy=0;entryX=0;entryY=0.5;entryDx=0;entryDy=0;strokeColor=default;align=center;verticalAlign=middle;fontFamily=Open Sans;fontSize=16;fontColor=default;labelBackgroundColor=default;endArrow=classic;" parent="1" source="p715lNvgheU7Gry9CAb6-500" target="p715lNvgheU7Gry9CAb6-497" edge="1">
          <mxGeometry relative="1" as="geometry">
            <mxPoint x="3420.004271247462" y="480.0042712474615" as="sourcePoint" />
          </mxGeometry>
        </mxCell>
        <mxCell id="p715lNvgheU7Gry9CAb6-507" value="&lt;span style=&quot;text-wrap: wrap;&quot;&gt;$$RD_{1}$$&lt;/span&gt;" style="edgeLabel;html=1;align=center;verticalAlign=middle;resizable=0;points=[];fontFamily=Open Sans;fontSize=12;fontColor=default;labelBackgroundColor=none;" parent="p715lNvgheU7Gry9CAb6-506" vertex="1" connectable="0">
          <mxGeometry x="0.0028" y="4" relative="1" as="geometry">
            <mxPoint y="-6" as="offset" />
          </mxGeometry>
        </mxCell>
        <mxCell id="zTE5bsZSXoYTr9CKlFXF-48" style="edgeStyle=orthogonalEdgeStyle;curved=1;rounded=0;orthogonalLoop=1;jettySize=auto;html=1;exitX=0;exitY=1;exitDx=0;exitDy=0;entryX=0.5;entryY=1;entryDx=0;entryDy=0;strokeColor=#9673A6;align=center;verticalAlign=middle;fontFamily=Helvetica;fontSize=11;fontColor=default;labelBackgroundColor=default;endArrow=classic;" parent="1" source="p715lNvgheU7Gry9CAb6-500" target="p715lNvgheU7Gry9CAb6-142" edge="1">
          <mxGeometry relative="1" as="geometry">
            <Array as="points">
              <mxPoint x="3252" y="840" />
              <mxPoint x="240" y="840" />
            </Array>
          </mxGeometry>
        </mxCell>
        <mxCell id="p715lNvgheU7Gry9CAb6-500" value="$$C_{1}^{36^{12}}$$" style="ellipse;whiteSpace=wrap;html=1;aspect=fixed;fillColor=none;fontSize=16;fontFamily=Open Sans;strokeWidth=2;" parent="1" vertex="1">
          <mxGeometry x="3240" y="360" width="80" height="80" as="geometry" />
        </mxCell>
        <mxCell id="p715lNvgheU7Gry9CAb6-505" value="$$+$$" style="ellipse;whiteSpace=wrap;html=1;aspect=fixed;fillColor=none;fontSize=16;fontFamily=Open Sans;strokeWidth=2;" parent="1" vertex="1">
          <mxGeometry x="3560" y="360" width="80" height="80" as="geometry" />
        </mxCell>
        <mxCell id="zTE5bsZSXoYTr9CKlFXF-10" style="edgeStyle=orthogonalEdgeStyle;rounded=0;orthogonalLoop=1;jettySize=auto;html=1;exitX=0.5;exitY=1;exitDx=0;exitDy=0;entryX=1;entryY=1;entryDx=0;entryDy=0;curved=1;" parent="1" source="p715lNvgheU7Gry9CAb6-500" target="p715lNvgheU7Gry9CAb6-500" edge="1">
          <mxGeometry relative="1" as="geometry">
            <Array as="points">
              <mxPoint x="3280" y="480" />
              <mxPoint x="3308" y="480" />
            </Array>
          </mxGeometry>
        </mxCell>
        <mxCell id="zTE5bsZSXoYTr9CKlFXF-11" value="&lt;span style=&quot;&quot;&gt;$$ND_{1}$$&lt;/span&gt;" style="edgeLabel;html=1;align=center;verticalAlign=middle;resizable=0;points=[];labelBackgroundColor=none;fontFamily=Open Sans;" parent="zTE5bsZSXoYTr9CKlFXF-10" vertex="1" connectable="0">
          <mxGeometry x="0.4472" y="3" relative="1" as="geometry">
            <mxPoint x="15" y="18" as="offset" />
          </mxGeometry>
        </mxCell>
      </root>
    </mxGraphModel>
  </diagram>
</mxfile>
